<?xml version="1.0" encoding="UTF-8"?>
<svg version="1.1" xmlns="http://www.w3.org/2000/svg" width="1080" height="1080">
<path d="M0 0 C356.4 0 712.8 0 1080 0 C1080 356.4 1080 712.8 1080 1080 C723.6 1080 367.2 1080 0 1080 C0 723.6 0 367.2 0 0 Z " fill="#222731" transform="translate(0,0)"/>
<path d="M0 0 C4.70588235 0.70588235 4.70588235 0.70588235 6 2 C6.48171634 8.00171177 5.11719494 12.84653847 3.1875 18.5 C2.88344238 19.40202148 2.57938477 20.30404297 2.26611328 21.23339844 C-2.14518084 33.82536294 -7.93499576 46.09829421 -14.6875 57.60546875 C-17.13372008 61.96938674 -18.34599194 66.19003163 -19.375 71.0625 C-19.56924561 71.92576904 -19.76349121 72.78903809 -19.96362305 73.6784668 C-20.65730215 76.78252718 -21.32806944 79.89115997 -22 83 C-22.62135972 85.82864133 -23.24653052 88.65643954 -23.87109375 91.484375 C-25.59822995 99.31914614 -27.30406577 107.15841765 -29 115 C-28.60458008 114.32525635 -28.20916016 113.6505127 -27.80175781 112.95532227 C-27.27420898 112.06385498 -26.74666016 111.1723877 -26.203125 110.25390625 C-25.68395508 109.3729126 -25.16478516 108.49191895 -24.62988281 107.58422852 C-22.13517473 103.62879337 -19.27223637 99.13611819 -15 97 C-12 96.8125 -12 96.8125 -9 97 C-7 99 -7 99 -6.6875 102.1875 C-7.3074327 109.75067894 -11.04190611 115.42365968 -16 121 C-17.30688474 122.03432589 -18.63447492 123.04442738 -20 124 C-19.67 125.32 -19.34 126.64 -19 128 C-6.9339606 127.77233888 2.44400753 118.82807105 10.50488281 110.56738281 C10.99827148 110.05014648 11.49166016 109.53291016 12 109 C12.4959668 108.4853418 12.99193359 107.97068359 13.50292969 107.44042969 C23.13835969 97.05943854 25.66549761 85.65515124 28.36914062 72.03710938 C29.28197876 67.64248618 30.43794997 63.3271197 31.625 59 C32.81278987 54.61296702 33.97398835 50.23584364 34.91796875 45.7890625 C38.14400455 30.64619226 42.74937358 11.25062642 54 0 C56.5625 -0.1875 56.5625 -0.1875 59 0 C60.66928415 1.66928415 60.23132807 3.63359957 60.28125 5.92578125 C60.21913706 11.94006091 58.78197184 16.67321548 56.5 22.1875 C56.1397876 23.09387207 55.7795752 24.00024414 55.40844727 24.93408203 C52.06167211 33.19591038 48.10612571 41.09705733 44 49 C34.59949035 67.11989296 31.10068483 86.65849547 26.76586914 106.4597168 C26.59819031 107.22513794 26.43051147 107.99055908 26.25775146 108.7791748 C25.94355656 110.21593205 25.63044048 111.65292586 25.31866455 113.09020996 C24.30045514 117.75094148 23.174745 122.37615466 22 127 C22.76183594 125.60587891 22.76183594 125.60587891 23.5390625 124.18359375 C32.21202071 108.52531953 32.21202071 108.52531953 39 104 C41.9375 103.5625 41.9375 103.5625 45 104 C48.85540921 107.7842762 49.62466921 110.89911962 50.1875 116.1875 C50.55783761 120.74951145 50.55783761 120.74951145 52 125 C58.58148962 124.1544614 61.99911712 119.99036344 66 115 C70.09141999 109.40293746 73.9249814 103.62748659 77.72241211 97.82836914 C79 96 79 96 81 94 C83.125 94.375 83.125 94.375 85 95 C84.14955687 104.31868538 84.14955687 104.31868538 83.4375 107.5625 C82.56897216 112.4014408 82.44236831 117.32710494 84 122 C94.04464441 120.66664012 100.8199708 111.24295711 106.87109375 103.83203125 C109.02496833 101.07421068 109.02496833 101.07421068 110.66015625 98.19921875 C112 96 112 96 114 95 C114.72796592 92.47130656 115.33290563 89.99453936 115.8828125 87.42578125 C116.05800919 86.64248947 116.23320587 85.85919769 116.41371155 85.0521698 C116.79236577 83.35858545 117.16762138 81.66423848 117.53988647 79.96923828 C118.52379161 75.50176604 119.54075292 71.04187497 120.55859375 66.58203125 C120.76335831 65.68376617 120.96812286 64.7855011 121.17909241 63.86001587 C133.38070724 10.61929276 133.38070724 10.61929276 144 0 C146.5 -0.25 146.5 -0.25 149 0 C151 2 151 2 151.3125 5.5 C150.8105465 20.34725626 141.5658949 35.99250967 134.05810547 48.43408203 C129.38615727 56.32368372 127.39601232 64.95374667 125.3125 73.8125 C125.05831299 74.8859668 124.80412598 75.95943359 124.54223633 77.06542969 C123.68586737 80.70826587 122.84080853 84.35354126 122 88 C121.85091187 88.646203 121.70182373 89.29240601 121.54821777 89.95819092 C117.09170007 109.30786257 112.97621416 128.72097116 109.0625 148.1875 C108.86514252 149.16384399 108.66778503 150.14018799 108.46444702 151.14611816 C107.90013639 153.94418177 107.34161501 156.74333421 106.78515625 159.54296875 C106.61885712 160.3665538 106.45255798 161.19013885 106.28121948 162.03868103 C104.17411676 171.37305902 104.17411676 171.37305902 104.625 180.75 C105 183 105 183 103.8125 185.8125 C103.214375 186.534375 102.61625 187.25625 102 188 C100.68 188 99.36 188 98 188 C95.38744776 182.77489553 97.23776033 175.53928427 98.28515625 170.03125 C98.42170624 169.28489288 98.55825623 168.53853577 98.69894409 167.76956177 C99.14556467 165.34483103 99.60343457 162.92240293 100.0625 160.5 C100.37640574 158.81689869 100.69028894 157.13379317 101.00415039 155.45068359 C103.99292347 139.55841113 107.41043458 123.766387 111 108 C110.25669434 108.82419434 109.51338867 109.64838867 108.74755859 110.49755859 C107.75633979 111.58965884 106.76495742 112.68161063 105.7734375 113.7734375 C105.28544678 114.31540771 104.79745605 114.85737793 104.29467773 115.41577148 C98.76609883 121.4893565 92.84607022 127.14447753 84.4375 128.375 C81.16802112 127.87200325 80.06704788 126.50998671 78 124 C76.71553081 121.43106162 76.67022856 119.23423663 76.4375 116.375 C76.31181641 114.87066406 76.31181641 114.87066406 76.18359375 113.3359375 C76.12300781 112.56507813 76.06242188 111.79421875 76 111 C75.35933594 111.86882812 74.71867188 112.73765625 74.05859375 113.6328125 C63.52173709 127.73913146 63.52173709 127.73913146 57 131 C53.625 131.375 53.625 131.375 50 131 C43.7235546 125.40208924 43.60202576 116.8738632 43 109 C39.37854028 110.01880273 39.37854028 110.01880273 37.0546875 112.74609375 C36.70664062 113.48988281 36.35859375 114.23367188 36 115 C34.83558197 116.77231274 33.6685519 118.54291014 32.5 120.3125 C25.83816026 130.77237214 20.60808141 142.83328044 16.83984375 154.6328125 C16.56269531 155.41398438 16.28554688 156.19515625 16 157 C13.9375 157.9375 13.9375 157.9375 12 158 C10.47495069 156.47495069 10.84008356 155.11583747 10.828125 152.99389648 C10.88505242 148.18821436 11.67016208 143.76654454 12.75 139.09765625 C13.01635254 137.89199257 13.01635254 137.89199257 13.28808594 136.66197205 C13.84985641 134.12673905 14.42437559 131.59461963 15 129.0625 C15.57300909 126.50487009 16.14336212 123.9466705 16.71191406 121.38804626 C17.06487622 119.80365015 17.42089271 118.21993071 17.78027344 116.63697815 C18.67865376 112.85614356 18.67865376 112.85614356 19 109 C18.62230469 109.46148437 18.24460937 109.92296875 17.85546875 110.3984375 C9.25398248 120.59129945 -1.16044778 131.53791882 -14.6484375 134.6015625 C-18.93945876 134.87242431 -20.52148209 134.38688682 -23.9375 131.625 C-24.618125 130.75875 -25.29875 129.8925 -26 129 C-26.66 128.34 -27.32 127.68 -28 127 C-29.29572674 130.51935229 -30.58584275 134.04073651 -31.875 137.5625 C-32.23980469 138.55314453 -32.60460937 139.54378906 -32.98046875 140.56445312 C-35.25325757 146.7808421 -35.25325757 146.7808421 -37.125 153.125 C-38 156 -38 156 -40.125 157.4375 C-40.74375 157.623125 -41.3625 157.80875 -42 158 C-43 157 -43 157 -43.18164062 153.04882812 C-43.11962274 147.93462188 -42.2186165 143.19310364 -41.09375 138.21875 C-40.8933461 137.29929092 -40.6929422 136.37983185 -40.48646545 135.43251038 C-39.83390259 132.45280019 -39.16739066 129.47642093 -38.5 126.5 C-38.04374688 124.43361004 -37.58794012 122.36712148 -37.13256836 120.30053711 C-34.12760121 106.73152148 -30.97228236 93.20162945 -27.6015625 79.71875 C-25.75838461 72.32230653 -24.13739145 64.92681067 -22.71411133 57.44067383 C-21.48667946 51.52676022 -19.72639717 45.78343053 -18 40 C-17.61215463 38.61265584 -17.22683065 37.22460487 -16.84375 35.8359375 C-9.50355837 9.50355837 -9.50355837 9.50355837 0 0 Z " fill="#F3F3F3" transform="translate(513,389)"/>
<path d="M0 0 C1.55443466 3.10886931 0.37711552 5.42721436 -0.40625 8.76953125 C-0.73837379 10.21384591 -1.07040043 11.65818291 -1.40234375 13.10253906 C-1.67087158 14.25357117 -1.67087158 14.25357117 -1.94482422 15.42785645 C-5.29290751 29.80886065 -8.29592481 44.23452296 -11 58.75 C-11.15315674 59.5713443 -11.30631348 60.3926886 -11.46411133 61.23892212 C-12.31747548 65.82448662 -13.1625556 70.41150258 -14 75 C-22.9746969 74.35084576 -31.92513359 73.55464305 -40.875 72.625 C-42.14601563 72.49343506 -43.41703125 72.36187012 -44.7265625 72.22631836 C-52.16709963 71.44239129 -59.58647931 70.56866476 -67 69.5625 C-76.59054325 68.26624312 -86.19740535 67.14662531 -95.81665039 66.08786011 C-97.46106745 65.90643617 -99.10528053 65.72315234 -100.74926758 65.53787231 C-105.82870159 64.96701432 -110.90906503 64.45764102 -116 64 C-116.93142822 63.90074219 -117.86285645 63.80148437 -118.82250977 63.69921875 C-126.59534155 63.21614794 -133.27243234 66.41888855 -140.3125 69.375 C-141.57291791 69.88961522 -142.83398345 70.4026472 -144.09570312 70.9140625 C-146.40722465 71.85602301 -148.71594227 72.80491761 -151.02075195 73.76318359 C-156.88652457 76.19832283 -160.62269978 77.60736193 -167 77 C-169.82319057 75.33504146 -170.69134465 74.02123005 -171.6328125 70.90625 C-172.3804348 66.82831019 -172.34687835 64.65373228 -170.375 60.9375 C-162.85170128 56.61856925 -153.3625058 59.02667797 -145.0625 60 C-142.74698262 60.25717279 -140.4311656 60.51084885 -138.11474609 60.75976562 C-136.2666448 60.96970925 -134.42361875 61.22339574 -132.58203125 61.484375 C-120.88097463 62.45352464 -110.72091395 56.80838117 -100.3215332 52.03149414 C-98 51 -98 51 -95 50 C-94.92910156 49.23816406 -94.85820313 48.47632813 -94.78515625 47.69140625 C-93.6745684 42.46998574 -91.57983661 37.81272705 -89.4375 32.9375 C-88.98930908 31.91414551 -88.54111816 30.89079102 -88.0793457 29.83642578 C-83.68592436 19.99584783 -79.10685302 10.34643278 -71 3 C-70.01 2.67 -69.02 2.34 -68 2 C-67.83564453 2.92619141 -67.83564453 2.92619141 -67.66796875 3.87109375 C-66.09602017 14.24639047 -66.09602017 14.24639047 -61 23 C-56.69441699 23.68889328 -53.82292834 23.27165564 -50.25 20.875 C-45.05475516 16.66981165 -41.21218909 11.16193498 -37.22265625 5.8515625 C-36.48917969 4.91054688 -35.75570312 3.96953125 -35 3 C-34.67 3 -34.34 3 -34 3 C-33.93941406 3.81984375 -33.87882813 4.6396875 -33.81640625 5.484375 C-33.73261719 6.56203125 -33.64882813 7.6396875 -33.5625 8.75 C-33.48128906 9.81734375 -33.40007812 10.8846875 -33.31640625 11.984375 C-33.05909227 14.43679962 -32.68187782 16.63921291 -32 19 C-26.48160521 20.18251317 -23.08869293 20.31103791 -18.140625 17.49609375 C-11.17573224 12.62829461 -5.32228592 6.58282732 0 0 Z " fill="#8D7336" transform="translate(624,496)"/>
<path d="M0 0 C2.25 0.9375 2.25 0.9375 3.25 2.9375 C5.66023702 21.97837249 -2.05144364 42.5841061 -6.72314453 60.86962891 C-9.31727684 71.04418114 -11.66476311 81.25265833 -13.84741211 91.52490234 C-14.07050049 92.56211426 -14.29358887 93.59932617 -14.5234375 94.66796875 C-14.80840088 96.01991333 -14.80840088 96.01991333 -15.09912109 97.39916992 C-15.77301918 100.02727137 -16.68897423 102.44316364 -17.75 104.9375 C-17.04915283 104.92702637 -16.34830566 104.91655273 -15.6262207 104.90576172 C-12.43835055 104.86408332 -9.25053785 104.83813615 -6.0625 104.8125 C-4.95970703 104.79574219 -3.85691406 104.77898437 -2.72070312 104.76171875 C-1.65400391 104.75527344 -0.58730469 104.74882812 0.51171875 104.7421875 C1.98064575 104.72647705 1.98064575 104.72647705 3.47924805 104.71044922 C6.42112772 104.95152315 8.58237726 105.70694458 11.25 106.9375 C10.92 108.2575 10.59 109.5775 10.25 110.9375 C7.10418698 110.96698491 3.95841037 110.98445916 0.8125 111 C-0.06599609 111.00837891 -0.94449219 111.01675781 -1.84960938 111.02539062 C-3.15961914 111.03022461 -3.15961914 111.03022461 -4.49609375 111.03515625 C-5.28685303 111.04039307 -6.0776123 111.04562988 -6.89233398 111.05102539 C-10.87004419 110.89300444 -14.79945714 110.41429257 -18.75 109.9375 C-21.46315549 122.06744628 -24.12418637 134.20784247 -26.73217773 146.36083984 C-27.31363998 149.06780712 -27.89802728 151.77413322 -28.48242188 154.48046875 C-33.05142296 174.29902102 -33.05142296 174.29902102 -35.4375 194.4375 C-35.50324219 195.6853125 -35.56898438 196.933125 -35.63671875 198.21875 C-35.67410156 199.1159375 -35.71148437 200.013125 -35.75 200.9375 C-34.43 201.2675 -33.11 201.5975 -31.75 201.9375 C-32.25298788 206.33864397 -33.83772731 208.64945019 -36.75 211.9375 C-38.625 211.625 -38.625 211.625 -40.75 210.9375 C-46.25905199 202.67392202 -42.01827634 189.02958549 -40.25 179.875 C-39.98300188 178.45064602 -39.71624338 177.0262471 -39.44970703 175.60180664 C-35.2744102 153.56185767 -30.27888819 131.67483735 -24.75 109.9375 C-25.63051025 109.94773193 -26.51102051 109.95796387 -27.41821289 109.96850586 C-37.55869782 110.07007606 -47.63097041 109.54162117 -57.75 108.9375 C-57.95882812 109.69675781 -58.16765625 110.45601563 -58.3828125 111.23828125 C-60.3159379 116.46876625 -62.95727541 121.23603839 -65.625 126.125 C-66.48967896 127.71272217 -66.48967896 127.71272217 -67.37182617 129.33251953 C-88.60566603 167.9157835 -88.60566603 167.9157835 -98.75 170.9375 C-102.36062613 171.60613447 -104.57916541 171.6145284 -107.796875 169.75390625 C-116.81277577 162.6869314 -119.67007087 151.77340371 -121.75 140.9375 C-122.18260662 136.67720058 -122.27499188 132.4678395 -122.25 128.1875 C-122.24500488 127.05513916 -122.24000977 125.92277832 -122.23486328 124.75610352 C-121.94774776 110.87060279 -118.7116501 98.20786714 -108.8359375 87.94921875 C-102.22602142 81.78591862 -96.24328541 79.39457924 -87.3125 79.5625 C-86.19307007 79.57120117 -86.19307007 79.57120117 -85.05102539 79.58007812 C-79.72847332 79.70590402 -75.53927267 80.49191395 -70.75 82.9375 C-70.75 84.2575 -70.75 85.5775 -70.75 86.9375 C-76.5 87.0625 -76.5 87.0625 -78.75 85.9375 C-89.13292754 85.22895376 -97.13640261 85.49388772 -105.30078125 92.48120117 C-115.15089419 102.3794363 -116.1318325 117.88872871 -116.12353516 131.00268555 C-115.85568322 141.88731823 -113.58227948 154.15620035 -106.75 162.9375 C-103.96855524 165.16471349 -103.96855524 165.16471349 -101 165.0625 C-93.26374614 162.38456597 -88.69415171 153.13951881 -84.625 146.4375 C-83.80563965 145.10271606 -83.80563965 145.10271606 -82.96972656 143.7409668 C-76.10708379 132.42426138 -69.66974709 120.77699417 -63.75 108.9375 C-64.49378906 108.94910156 -65.23757813 108.96070313 -66.00390625 108.97265625 C-74.01079418 109.03882888 -81.99883963 108.85579493 -90 108.5625 C-91.53636108 108.5162146 -91.53636108 108.5162146 -93.10375977 108.46899414 C-94.06467529 108.4302417 -95.02559082 108.39148926 -96.015625 108.3515625 C-97.31161621 108.30443115 -97.31161621 108.30443115 -98.63378906 108.25634766 C-100.75 107.9375 -100.75 107.9375 -102.75 105.9375 C-102.42 104.6175 -102.09 103.2975 -101.75 101.9375 C-87.89 102.2675 -74.03 102.5975 -59.75 102.9375 C-59.09 101.2875 -58.43 99.6375 -57.75 97.9375 C-57.13181494 96.61694779 -56.4971319 95.30398536 -55.84570312 93.99951172 C-55.47771606 93.26038544 -55.109729 92.52125916 -54.73059082 91.75973511 C-54.13691711 90.57542404 -54.13691711 90.57542404 -53.53125 89.3671875 C-53.11387573 88.53148224 -52.69650146 87.69577698 -52.26647949 86.83474731 C-51.37980885 85.06072612 -50.49212963 83.28720871 -49.60351562 81.51416016 C-48.27959938 78.8715813 -46.95986036 76.22694936 -45.640625 73.58203125 C-40.17826527 62.65264152 -34.58330763 51.80095706 -28.85125732 41.01062012 C-27.85177006 39.12908244 -26.85524507 37.24601638 -25.85986328 35.36230469 C-24.27001743 32.36146488 -22.66836841 29.36728864 -21.0625 26.375 C-20.2880957 24.91223633 -20.2880957 24.91223633 -19.49804688 23.41992188 C-6.8208078 -0.15501836 -6.8208078 -0.15501836 0 0 Z " fill="#F1F1F2" transform="translate(462.75,381.0625)"/>
<path d="M0 0 C10.97710158 3.32729466 18.16019621 9.82910852 23.87109375 19.5703125 C27.4194694 27.20730092 27.23473146 37.82151694 24.9375 45.8125 C21.45906959 54.5166654 15.15005431 60.60818628 7 65 C6.30261719 65.37898437 5.60523438 65.75796875 4.88671875 66.1484375 C0.43204444 67.46253628 -3.94560229 67.24754179 -8.5625 67.1875 C-9.98079102 67.1865332 -9.98079102 67.1865332 -11.42773438 67.18554688 C-20.43332017 67.12826753 -20.43332017 67.12826753 -23 66 C-25.22915213 62.19695571 -25.09985939 59.40362751 -24.40234375 55.140625 C-24.20108887 53.90634766 -23.99983398 52.67207031 -23.79248047 51.40039062 C-23.53142733 49.93303759 -23.26699682 48.46628318 -23 47 C-22.84638 46.15107178 -22.69276001 45.30214355 -22.53448486 44.42749023 C-21.46011781 38.55127504 -20.32927697 32.68739286 -19.16870117 26.82763672 C-18.55593312 23.71666047 -17.96065803 20.60261752 -17.36523438 17.48828125 C-16.97502926 15.50760122 -16.58379188 13.52712421 -16.19140625 11.546875 C-16.0163002 10.61679626 -15.84119415 9.68671753 -15.66078186 8.72845459 C-15.48727707 7.8728595 -15.31377228 7.0172644 -15.13500977 6.13574219 C-14.98781998 5.38299011 -14.84063019 4.63023804 -14.6889801 3.85467529 C-12.53185426 -1.95212229 -4.93746066 -0.60846755 0 0 Z " fill="#977732" transform="translate(641,506)"/>
<path d="M0 0 C1.30030568 4.3501616 0.57498993 8.15605045 -0.16796875 12.5546875 C-0.30567184 13.39417938 -0.44337494 14.23367126 -0.58525085 15.09860229 C-2.12545859 24.19339943 -4.18049478 33.15401297 -6.3125 42.125 C-6.71290224 43.83085605 -7.11279823 45.536831 -7.51220703 47.24291992 C-8.48861866 51.40572378 -9.47332071 55.56650923 -10.46112061 59.72662354 C-10.96110005 61.83589237 -11.45820553 63.9458057 -11.95361328 66.05615234 C-12.75663461 69.47592341 -13.56423588 72.8945573 -14.375 76.3125 C-14.60098877 77.26979004 -14.82697754 78.22708008 -15.05981445 79.21337891 C-15.27468506 80.10847168 -15.48955566 81.00356445 -15.7109375 81.92578125 C-15.88931152 82.67255127 -16.06768555 83.41932129 -16.25146484 84.1887207 C-17.39630127 88.48839174 -18.72145297 92.73817657 -20 97 C-30.23 97 -40.46 97 -51 97 C-50.2024923 93.01246148 -49.63606332 90.93549633 -47.8046875 87.53515625 C-47.34384766 86.66818115 -46.88300781 85.80120605 -46.40820312 84.90795898 C-45.90224609 83.96895752 -45.39628906 83.02995605 -44.875 82.0625 C-40.26899999 73.38978347 -35.80818842 64.6602359 -31.45251465 55.86035156 C-7.49297868 7.49297868 -7.49297868 7.49297868 0 0 Z " fill="#252A34" transform="translate(460,388)"/>
<path d="M0 0 C0.10957031 0.61746094 0.21914063 1.23492187 0.33203125 1.87109375 C1.90397983 12.24639047 1.90397983 12.24639047 7 21 C11.30558301 21.68889328 14.17707166 21.27165564 17.75 18.875 C22.94524484 14.66981165 26.78781091 9.16193498 30.77734375 3.8515625 C31.87755859 2.44003906 31.87755859 2.44003906 33 1 C33.33 1 33.66 1 34 1 C34.06058594 1.81984375 34.12117187 2.6396875 34.18359375 3.484375 C34.26738281 4.56203125 34.35117187 5.6396875 34.4375 6.75 C34.51871094 7.81734375 34.59992187 8.8846875 34.68359375 9.984375 C34.94090773 12.43679962 35.31812218 14.63921291 36 17 C38.31 17.66 40.62 18.32 43 19 C40.32084916 21.67915084 37.19361751 22.68452731 33.73046875 24.0546875 C32.9897966 24.35266739 32.24912445 24.65064728 31.48600769 24.95765686 C29.05500546 25.93474627 26.62129738 26.90489638 24.1875 27.875 C20.81809847 29.22559757 17.45002526 30.57949069 14.08203125 31.93359375 C13.23419067 32.27393143 12.3863501 32.6142691 11.51281738 32.96492004 C6.05855065 35.15825001 0.6218526 37.38979994 -4.80078125 39.66015625 C-5.47387833 39.94153442 -6.1469754 40.2229126 -6.84046936 40.51281738 C-9.99648262 41.83325794 -13.14971353 43.15968322 -16.30004883 44.49365234 C-17.41017334 44.95852051 -18.52029785 45.42338867 -19.6640625 45.90234375 C-21.10966553 46.51323853 -21.10966553 46.51323853 -22.58447266 47.13647461 C-25 48 -25 48 -28 48 C-9.77033493 0 -9.77033493 0 0 0 Z " fill="#252A33" transform="translate(556,498)"/>
<path d="M0 0 C1.38600376 0.14514318 2.77207142 0.28967754 4.15820312 0.43359375 C7.50197625 0.78311707 10.84498447 1.1386816 14.1875 1.5 C11.67449337 4.01300663 9.36044613 4.74727871 6.04296875 6.03125 C5.13276726 6.38612488 5.13276726 6.38612488 4.20417786 6.74816895 C2.26300455 7.50374557 0.31910052 8.25199151 -1.625 9 C-2.92271584 9.50341727 -4.22024416 10.00731819 -5.51757812 10.51171875 C-7.91267198 11.44249915 -10.30898312 12.36985127 -12.70629883 13.29492188 C-14.67440923 14.05846765 -16.63667424 14.83740584 -18.59033203 15.63720703 C-22.24464126 17.05605221 -24.89796723 16.87281264 -28.8125 16.5 C-31.63569057 14.83504146 -32.50384465 13.52123005 -33.4453125 10.40625 C-34.1929348 6.32831019 -34.15937835 4.15373228 -32.1875 0.4375 C-23.39537709 -4.60982982 -9.71219372 -1.05232107 0 0 Z " fill="#796C3D" transform="translate(485.8125,556.5)"/>
<path d="M0 0 C1.54875161 3.09750322 0.57733456 5.60964749 -0.22265625 8.8828125 C-1 11 -1 11 -3.0625 12.8125 C-4.031875 13.204375 -5.00125 13.59625 -6 14 C-6.74507812 14.35964844 -7.49015625 14.71929687 -8.2578125 15.08984375 C-12.78480929 17.25144832 -12.78480929 17.25144832 -15 18 C-15.66 17.67 -16.32 17.34 -17 17 C-16.19175781 16.27554688 -15.38351562 15.55109375 -14.55078125 14.8046875 C-13.47116263 13.82833675 -12.39174635 12.85176223 -11.3125 11.875 C-10.78205078 11.400625 -10.25160156 10.92625 -9.70507812 10.4375 C-6.12294242 7.18500869 -3.02250068 3.77952775 0 0 Z " fill="#31353D" transform="translate(624,496)"/>
<path d="M0 0 C0.81379941 2.31344234 1.18025173 3.5311485 0.28515625 5.859375 C-3.20153351 11.25093361 -7.31136105 15.62548822 -12 20 C-12 14.16183275 -7.96293965 8.32546454 -4.265625 3.9453125 C-2.89282986 2.57905448 -1.45330174 1.28028963 0 0 Z " fill="#363A43" transform="translate(500,491)"/>
<path d="M0 0 C1.16968997 3.50906991 0.81705493 4.12080888 -0.546875 7.421875 C-0.8975 8.28296875 -1.248125 9.1440625 -1.609375 10.03125 C-1.98578125 10.9284375 -2.3621875 11.825625 -2.75 12.75 C-3.1109375 13.63171875 -3.471875 14.5134375 -3.84375 15.421875 C-5.84800716 20.30180548 -7.90914381 25.15662426 -10 30 C-11.39621325 25.81136024 -9.83796587 22.90810092 -8.375 18.9375 C-7.96483643 17.79873413 -7.96483643 17.79873413 -7.54638672 16.63696289 C-5.42871718 10.8780544 -2.98155466 5.36943693 0 0 Z " fill="#464A53" transform="translate(567,397)"/>
<path d="M0 0 C1 2 1 2 -0.07421875 5.37890625 C-0.60343273 6.77670317 -1.14172916 8.17108422 -1.6875 9.5625 C-1.96352051 10.28179687 -2.23954102 11.00109375 -2.52392578 11.7421875 C-4.52262878 16.90463155 -6.66842671 21.97814984 -9 27 C-10.21522638 23.53266636 -9.79848211 21.70134456 -8.41796875 18.33984375 C-8.06283203 17.46392578 -7.70769531 16.58800781 -7.34179688 15.68554688 C-6.96087891 14.77869141 -6.57996094 13.87183594 -6.1875 12.9375 C-5.63352539 11.57141602 -5.63352539 11.57141602 -5.06835938 10.17773438 C-3.57437452 6.5379903 -2.18992667 3.28489 0 0 Z " fill="#454951" transform="translate(512,399)"/>
<path d="M0 0 C1.19267961 3.57803883 0.73111676 4.41419497 -0.58203125 7.8515625 C-0.93716797 8.78484375 -1.29230469 9.718125 -1.65820312 10.6796875 C-2.03912109 11.65164063 -2.42003906 12.62359375 -2.8125 13.625 C-3.36647461 15.09453125 -3.36647461 15.09453125 -3.93164062 16.59375 C-6.73794107 23.86897053 -6.73794107 23.86897053 -9 25 C-7.95035829 19.01704225 -6.19570043 13.61608698 -3.9375 8 C-3.6679248 7.3289624 -3.39834961 6.6579248 -3.12060547 5.96655273 C-1.14248346 1.14248346 -1.14248346 1.14248346 0 0 Z " fill="#434750" transform="translate(657,398)"/>
<path d="M0 0 C1.2065625 0.0309375 1.2065625 0.0309375 2.4375 0.0625 C2.7675 1.3825 3.0975 2.7025 3.4375 4.0625 C0.4375 6.0625 0.4375 6.0625 -2.25 5.6875 C-3.013125 5.48125 -3.77625 5.275 -4.5625 5.0625 C-3.43829114 0.08386076 -3.43829114 0.08386076 0 0 Z " fill="#ECEDEE" transform="translate(599.5625,467.9375)"/>
</svg>
