<?xml version="1.0" encoding="UTF-8"?>
<svg xmlns="http://www.w3.org/2000/svg" xmlns:xlink="http://www.w3.org/1999/xlink" width="248px" height="248px" viewBox="0 0 248 248" version="1.1">
<g id="surface1">
<path style=" stroke:none;fill-rule:nonzero;fill:rgb(60%,46.27451%,10.196078%);fill-opacity:1;" d="M 86.800781 94.238281 C 90.03125 93.890625 92.566406 94.863281 95.234375 96.71875 C 96.636719 98.769531 96.136719 100.324219 95.730469 102.667969 C 95.484375 103.40625 95.484375 103.40625 95.234375 104.164062 C 95.15625 105.222656 95.105469 106.28125 95.074219 107.34375 C 95.058594 107.964844 95.035156 108.585938 95.011719 109.226562 C 94.992188 109.878906 94.972656 110.527344 94.957031 111.195312 C 94.929688 111.863281 94.914062 112.523438 94.886719 113.179688 C 94.835938 114.804688 94.785156 116.421875 94.734375 118.050781 C 98.960938 115.003906 101.730469 112.414062 102.667969 107.132812 C 104.652344 107.132812 104.652344 107.132812 105.898438 108.25 C 106.304688 108.703125 106.714844 109.152344 107.132812 109.617188 C 107.71875 110.089844 107.71875 110.089844 108.316406 110.574219 C 109.117188 111.601562 109.117188 111.601562 109.246094 112.964844 C 107.929688 116.382812 104.75 118.6875 101.679688 120.53125 C 101.886719 123.136719 102.855469 124.714844 104.46875 126.695312 C 104.695312 126.980469 104.917969 127.261719 105.144531 127.546875 C 107.609375 130.757812 107.609375 130.757812 110.605469 133.421875 C 111.261719 133.421875 111.914062 133.421875 112.59375 133.421875 C 112.59375 132.953125 112.59375 132.484375 112.59375 132 C 112.582031 127.574219 112.570312 123.152344 112.566406 118.730469 C 112.5625 116.457031 112.558594 114.183594 112.550781 111.910156 C 112.546875 109.714844 112.542969 107.519531 112.542969 105.328125 C 112.542969 104.492188 112.542969 103.652344 112.542969 102.8125 C 112.539062 101.644531 112.539062 100.472656 112.539062 99.300781 C 112.535156 98.949219 112.535156 98.601562 112.53125 98.246094 C 112.539062 95.839844 112.539062 95.839844 113.085938 94.734375 C 115.445312 94.964844 117.117188 95.300781 119.035156 96.71875 C 119.761719 98.167969 119.589844 99.449219 119.582031 101.066406 C 119.582031 101.394531 119.582031 101.722656 119.582031 102.0625 C 119.578125 103.109375 119.570312 104.164062 119.566406 105.214844 C 119.566406 105.925781 119.566406 106.636719 119.5625 107.351562 C 119.554688 109.101562 119.546875 110.847656 119.535156 112.59375 C 119.886719 112.332031 119.886719 112.332031 120.246094 112.0625 C 120.550781 111.839844 120.863281 111.617188 121.175781 111.382812 C 121.484375 111.15625 121.792969 110.9375 122.101562 110.703125 C 124.199219 109.335938 126.542969 109.246094 128.964844 109.617188 C 130.871094 110.625 132.128906 112.078125 132.929688 114.082031 C 133.039062 115.257812 133.039062 115.257812 133.027344 116.554688 C 133.023438 117.246094 133.023438 117.246094 133.015625 117.957031 C 133 118.679688 133 118.679688 132.988281 119.414062 C 132.984375 119.902344 132.984375 120.390625 132.980469 120.890625 C 132.964844 122.089844 132.945312 123.296875 132.929688 124.496094 C 134.238281 123.839844 135.550781 123.1875 136.898438 122.515625 C 136.898438 118.417969 136.898438 114.332031 136.898438 110.113281 C 139.238281 109.171875 140.394531 108.855469 142.847656 109.117188 C 143.972656 109.832031 143.972656 109.832031 144.832031 111.101562 C 144.933594 112.664062 144.703125 114.148438 144.464844 115.691406 C 144.371094 116.320312 144.371094 116.320312 144.289062 116.953125 C 144.148438 117.980469 143.996094 119.007812 143.835938 120.03125 C 145.148438 119.375 146.457031 118.722656 147.808594 118.050781 C 147.824219 116.996094 147.824219 116.996094 147.847656 115.917969 C 147.894531 113.320312 147.945312 110.714844 147.996094 108.117188 C 148.011719 106.984375 148.035156 105.859375 148.050781 104.734375 C 148.085938 103.117188 148.113281 101.5 148.144531 99.886719 C 148.152344 99.375 148.164062 98.871094 148.171875 98.347656 C 148.183594 97.878906 148.195312 97.414062 148.199219 96.933594 C 148.207031 96.515625 148.21875 96.105469 148.226562 95.683594 C 148.300781 94.734375 148.300781 94.734375 148.800781 94.238281 C 151.238281 94.050781 152.851562 94.109375 154.75 95.730469 C 155.3125 97.621094 155.222656 99.238281 155.027344 101.183594 C 154.636719 105.972656 154.707031 110.761719 154.75 115.566406 C 155.230469 115.363281 155.707031 115.160156 156.203125 114.953125 C 163.128906 112.058594 169.335938 110.3125 176.699219 113.148438 C 182.316406 115.753906 185.796875 119.347656 188.144531 125.113281 C 190.132812 131.011719 189.832031 135.582031 187.484375 141.363281 C 186.636719 142.980469 185.667969 144.402344 184.515625 145.820312 C 184.265625 146.132812 184.015625 146.445312 183.757812 146.761719 C 180.503906 150.398438 175.480469 152.847656 170.621094 153.265625 C 162.824219 153.171875 155.046875 152.011719 147.3125 151.113281 C 145.382812 150.894531 143.449219 150.667969 141.511719 150.453125 C 135.785156 149.796875 130.054688 149.140625 124.324219 148.484375 C 119.859375 147.964844 115.394531 147.457031 110.925781 146.945312 C 108.632812 146.6875 106.34375 146.421875 104.058594 146.160156 C 102.628906 145.992188 101.203125 145.828125 99.773438 145.667969 C 98.804688 145.558594 97.839844 145.441406 96.875 145.332031 C 88.882812 144.417969 88.882812 144.417969 81.296875 146.566406 C 80.898438 146.742188 80.5 146.921875 80.089844 147.101562 C 78.839844 147.660156 77.597656 148.226562 76.355469 148.800781 C 65.527344 153.777344 65.527344 153.777344 61.503906 152.765625 C 60.066406 151.679688 59.324219 150.890625 58.53125 149.296875 C 58.269531 146.917969 58.175781 144.960938 59.363281 142.847656 C 61.183594 141.273438 62.640625 140.761719 65.027344 140.929688 C 65.847656 141.019531 66.667969 141.109375 67.488281 141.207031 C 67.9375 141.25 68.394531 141.289062 68.859375 141.332031 C 71.488281 141.59375 74.050781 141.964844 76.644531 142.480469 C 86.847656 144.324219 93.746094 141.511719 102.667969 136.898438 C 102.667969 135.582031 102.195312 135.144531 101.433594 134.074219 C 99.757812 131.640625 98.40625 129.089844 97.078125 126.460938 C 96.242188 124.671875 96.242188 124.671875 94.734375 123.503906 C 94.75 123.878906 94.761719 124.261719 94.769531 124.652344 C 94.859375 129.554688 94.421875 133.226562 91.761719 137.394531 C 90.859375 137.296875 90.859375 137.296875 89.777344 136.898438 C 87.898438 134.328125 87.730469 132.144531 87.695312 129.019531 C 87.695312 128.679688 87.691406 128.339844 87.6875 127.996094 C 87.679688 127.261719 87.667969 126.527344 87.660156 125.792969 C 87.648438 124.628906 87.640625 123.464844 87.625 122.300781 C 87.597656 119.828125 87.570312 117.355469 87.546875 114.882812 C 87.511719 112.023438 87.484375 109.160156 87.453125 106.300781 C 87.4375 105.160156 87.425781 104.019531 87.414062 102.871094 C 87.40625 102.167969 87.402344 101.457031 87.390625 100.757812 C 87.382812 100.144531 87.375 99.527344 87.371094 98.894531 C 87.300781 97.304688 87.101562 95.804688 86.800781 94.238281 Z M 120.03125 119.035156 C 119.449219 120.203125 119.433594 121 119.375 122.296875 C 119.359375 122.742188 119.335938 123.1875 119.320312 123.644531 C 119.296875 124.113281 119.277344 124.574219 119.257812 125.050781 C 119.234375 125.527344 119.214844 125.992188 119.191406 126.476562 C 119.136719 127.632812 119.085938 128.792969 119.035156 129.949219 C 121.214844 129.671875 122.957031 129.125 124.929688 128.1875 C 125.648438 127.851562 125.648438 127.851562 126.382812 127.503906 C 126.738281 127.324219 127.101562 127.15625 127.46875 126.980469 C 127.5 125.523438 127.515625 124.066406 127.535156 122.605469 C 127.542969 122.1875 127.554688 121.78125 127.558594 121.355469 C 127.558594 120.957031 127.5625 120.554688 127.566406 120.148438 C 127.574219 119.777344 127.578125 119.417969 127.585938 119.035156 C 127.53125 117.890625 127.53125 117.890625 126.480469 116.5625 C 123.328125 116.144531 122.078125 116.4375 120.03125 119.035156 Z M 120.03125 119.035156 "/>
<path style=" stroke:none;fill-rule:nonzero;fill:rgb(85.490196%,85.490196%,85.490196%);fill-opacity:1;" d="M 86.800781 94.238281 C 90.03125 93.890625 92.566406 94.863281 95.234375 96.71875 C 96.636719 98.769531 96.136719 100.324219 95.730469 102.667969 C 95.5625 103.160156 95.398438 103.652344 95.234375 104.164062 C 95.15625 105.222656 95.105469 106.28125 95.074219 107.34375 C 95.058594 107.964844 95.035156 108.585938 95.011719 109.226562 C 94.992188 109.878906 94.972656 110.527344 94.957031 111.195312 C 94.929688 111.863281 94.914062 112.523438 94.886719 113.179688 C 94.835938 114.804688 94.785156 116.421875 94.734375 118.050781 C 98.960938 115.003906 101.730469 112.414062 102.667969 107.132812 C 104.652344 107.132812 104.652344 107.132812 105.898438 108.25 C 106.304688 108.703125 106.714844 109.152344 107.132812 109.617188 C 107.523438 109.929688 107.914062 110.25 108.316406 110.574219 C 109.117188 111.601562 109.117188 111.601562 109.246094 112.964844 C 107.929688 116.382812 104.75 118.6875 101.679688 120.53125 C 101.886719 123.140625 102.855469 124.714844 104.46875 126.695312 C 104.695312 126.980469 104.914062 127.261719 105.140625 127.546875 C 106.828125 129.652344 108.632812 131.582031 110.605469 133.421875 C 110.113281 134.914062 110.113281 134.914062 109.050781 135.503906 C 108.613281 135.679688 108.175781 135.847656 107.726562 136.03125 C 107.292969 136.203125 106.859375 136.378906 106.414062 136.566406 C 105.019531 136.929688 104.464844 137.019531 103.167969 136.398438 C 101.355469 134.488281 100.148438 132.210938 98.886719 129.921875 C 98.691406 129.570312 98.496094 129.21875 98.300781 128.859375 C 96.820312 126.203125 96.820312 126.203125 96.222656 124.90625 C 95.792969 123.917969 95.792969 123.917969 94.734375 123.503906 C 94.75 123.878906 94.761719 124.261719 94.769531 124.652344 C 94.859375 129.554688 94.421875 133.226562 91.761719 137.394531 C 90.859375 137.296875 90.859375 137.296875 89.777344 136.898438 C 87.898438 134.328125 87.730469 132.144531 87.695312 129.019531 C 87.695312 128.515625 87.695312 128.515625 87.6875 127.996094 C 87.679688 127.261719 87.667969 126.527344 87.660156 125.792969 C 87.648438 124.628906 87.640625 123.464844 87.625 122.300781 C 87.597656 119.828125 87.570312 117.355469 87.546875 114.882812 C 87.511719 112.023438 87.484375 109.160156 87.453125 106.300781 C 87.4375 105.160156 87.425781 104.019531 87.414062 102.871094 C 87.40625 102.167969 87.402344 101.457031 87.390625 100.757812 C 87.382812 100.144531 87.375 99.527344 87.371094 98.894531 C 87.300781 97.304688 87.101562 95.804688 86.800781 94.238281 Z M 86.800781 94.238281 "/>
<path style=" stroke:none;fill-rule:nonzero;fill:rgb(86.666667%,86.666667%,86.666667%);fill-opacity:1;" d="M 67.949219 96.222656 C 70.210938 96.949219 71.804688 97.941406 73.40625 99.699219 C 73.671875 101.214844 73.550781 102.628906 73.40625 104.164062 C 73.40625 104.8125 73.40625 105.472656 73.40625 106.148438 C 73.777344 106.328125 74.140625 106.511719 74.519531 106.699219 C 76.648438 108.144531 77.011719 110.222656 77.871094 112.59375 C 77.992188 112.925781 78.109375 113.253906 78.238281 113.59375 C 79.089844 115.960938 79.925781 118.339844 80.75 120.722656 C 81.042969 121.5625 81.339844 122.40625 81.640625 123.25 C 84.828125 132.246094 84.828125 132.246094 84.816406 136.898438 C 82.578125 136.574219 81.605469 135.933594 80.167969 134.148438 C 78.464844 131.582031 77.191406 128.769531 75.886719 125.984375 C 75.617188 126.023438 75.34375 126.066406 75.0625 126.105469 C 71.144531 126.613281 67.40625 126.324219 63.484375 125.984375 C 63.351562 126.417969 63.214844 126.851562 63.074219 127.300781 C 61.707031 131.230469 60.148438 134.492188 56.410156 136.546875 C 55.550781 136.898438 55.550781 136.898438 54.5625 136.898438 C 54.855469 134.652344 55.441406 132.734375 56.285156 130.632812 C 56.539062 129.992188 56.792969 129.355469 57.035156 128.722656 C 57.175781 128.386719 57.304688 128.058594 57.4375 127.71875 C 60.921875 118.960938 64.15625 110.246094 66.167969 101.015625 C 66.257812 100.605469 66.347656 100.191406 66.441406 99.769531 C 66.523438 99.410156 66.59375 99.042969 66.675781 98.671875 C 66.964844 97.714844 66.964844 97.714844 67.949219 96.222656 Z M 70.433594 109.617188 C 69.835938 110.992188 69.246094 112.359375 68.660156 113.742188 C 68.496094 114.128906 68.324219 114.519531 68.152344 114.917969 C 67.988281 115.296875 67.835938 115.671875 67.671875 116.058594 C 67.523438 116.40625 67.375 116.75 67.222656 117.101562 C 66.835938 118.144531 66.835938 118.144531 67.453125 119.535156 C 67.894531 119.375 68.335938 119.210938 68.789062 119.035156 C 70.289062 118.589844 71.371094 118.453125 72.914062 118.546875 C 72.464844 114.269531 72.464844 114.269531 71.421875 110.113281 C 71.09375 109.949219 70.769531 109.785156 70.433594 109.617188 Z M 70.433594 109.617188 "/>
<path style=" stroke:none;fill-rule:nonzero;fill:rgb(85.882353%,85.882353%,85.882353%);fill-opacity:1;" d="M 113.085938 94.734375 C 115.445312 94.964844 117.117188 95.300781 119.035156 96.71875 C 119.761719 98.167969 119.589844 99.449219 119.582031 101.066406 C 119.582031 101.394531 119.582031 101.722656 119.582031 102.0625 C 119.578125 103.109375 119.570312 104.164062 119.566406 105.214844 C 119.566406 105.925781 119.566406 106.636719 119.5625 107.351562 C 119.554688 109.101562 119.546875 110.847656 119.535156 112.59375 C 119.765625 112.417969 120.003906 112.246094 120.246094 112.0625 C 120.550781 111.839844 120.863281 111.617188 121.175781 111.382812 C 121.484375 111.15625 121.792969 110.9375 122.101562 110.703125 C 124.199219 109.335938 126.542969 109.246094 128.964844 109.617188 C 130.863281 110.621094 132.160156 112.070312 132.929688 114.082031 C 133.082031 115.671875 133.082031 115.671875 133.128906 117.53125 C 133.140625 117.859375 133.152344 118.183594 133.164062 118.519531 C 133.191406 119.566406 133.21875 120.601562 133.234375 121.648438 C 133.257812 122.351562 133.277344 123.054688 133.296875 123.769531 C 133.34375 125.496094 133.382812 127.226562 133.421875 128.964844 C 133.585938 128.964844 133.753906 128.964844 133.917969 128.964844 C 134.050781 131.097656 134.105469 132.914062 133.363281 134.941406 C 132.433594 135.902344 132.433594 135.902344 130.945312 136.214844 C 129.453125 135.902344 129.453125 135.902344 128.558594 134.785156 C 127.53125 132.410156 127.417969 130.574219 127.46875 127.96875 C 126.820312 127.800781 126.160156 127.640625 125.484375 127.46875 C 126.222656 127.222656 126.222656 127.222656 126.980469 126.980469 C 126.988281 125.511719 127 124.039062 127.007812 122.570312 C 127.011719 122.15625 127.015625 121.742188 127.023438 121.3125 C 127.023438 120.910156 127.027344 120.507812 127.027344 120.101562 C 127.027344 119.726562 127.027344 119.363281 127.027344 118.984375 C 127.03125 118.003906 127.03125 118.003906 126.480469 117.054688 C 123.683594 116.765625 123.683594 116.765625 121.304688 117.984375 C 119.714844 120.148438 119.855469 122.136719 119.71875 124.746094 C 119.699219 125.183594 119.667969 125.621094 119.644531 126.066406 C 119.621094 126.488281 119.601562 126.902344 119.578125 127.332031 C 119.5625 127.714844 119.539062 128.097656 119.519531 128.492188 C 119.472656 129.496094 119.472656 129.496094 120.03125 130.449219 C 119.707031 130.449219 119.375 130.449219 119.035156 130.449219 C 119.058594 130.757812 119.078125 131.054688 119.089844 131.375 C 119.105469 131.773438 119.121094 132.171875 119.132812 132.589844 C 119.148438 132.984375 119.167969 133.378906 119.183594 133.792969 C 119.035156 134.914062 119.035156 134.914062 118.359375 135.785156 C 117.550781 136.398438 117.550781 136.398438 116.371094 136.675781 C 114.757812 136.328125 114.128906 135.582031 113.121094 134.308594 C 112.234375 132.824219 112.261719 131.316406 112.300781 129.644531 C 112.300781 129.273438 112.300781 128.910156 112.300781 128.527344 C 112.300781 127.324219 112.3125 126.125 112.332031 124.921875 C 112.335938 124.082031 112.339844 123.25 112.339844 122.40625 C 112.347656 120.652344 112.355469 118.898438 112.378906 117.144531 C 112.398438 114.898438 112.414062 112.648438 112.421875 110.402344 C 112.429688 108.253906 112.445312 106.109375 112.453125 103.96875 C 112.457031 103.554688 112.460938 103.148438 112.460938 102.722656 C 112.472656 101.566406 112.484375 100.410156 112.496094 99.253906 C 112.496094 98.910156 112.496094 98.566406 112.5 98.207031 C 112.539062 95.839844 112.539062 95.839844 113.085938 94.734375 Z M 113.085938 94.734375 "/>
<path style=" stroke:none;fill-rule:nonzero;fill:rgb(86.27451%,86.27451%,86.27451%);fill-opacity:1;" d="M 150.414062 94.117188 C 152.375 94.246094 153.261719 94.457031 154.75 95.730469 C 155.296875 97.589844 155.238281 99.203125 155.0625 101.121094 C 154.78125 104.507812 154.613281 107.894531 154.472656 111.285156 C 154.441406 112.0625 154.441406 112.0625 154.40625 112.855469 C 154.355469 114.09375 154.304688 115.324219 154.253906 116.5625 C 153.925781 116.5625 153.601562 116.5625 153.265625 116.5625 C 153.265625 118.355469 153.265625 120.160156 153.265625 122.015625 C 153.589844 122.015625 153.917969 122.015625 154.253906 122.015625 C 154.296875 123.683594 154.328125 125.339844 154.347656 127.007812 C 154.367188 127.707031 154.367188 127.707031 154.390625 128.425781 C 154.417969 131.300781 154.21875 133.382812 152.765625 135.902344 C 151.4375 136.371094 151.4375 136.371094 150.285156 136.398438 C 148 132.792969 148.0625 129.683594 148.179688 125.484375 C 148.191406 124.867188 148.195312 124.246094 148.207031 123.605469 C 148.230469 122.085938 148.261719 120.5625 148.300781 119.035156 C 147.976562 118.878906 147.652344 118.710938 147.3125 118.546875 C 147.390625 118.234375 147.46875 117.925781 147.554688 117.609375 C 147.90625 115.460938 147.914062 113.347656 147.949219 111.175781 C 147.953125 110.703125 147.964844 110.234375 147.976562 109.753906 C 148.011719 107.75 148.050781 105.753906 148.082031 103.75 C 148.105469 102.285156 148.136719 100.824219 148.164062 99.367188 C 148.171875 98.90625 148.179688 98.449219 148.1875 97.980469 C 148.257812 94.285156 148.257812 94.285156 150.414062 94.117188 Z M 150.414062 94.117188 "/>
<path style=" stroke:none;fill-rule:nonzero;fill:rgb(85.490196%,84.705882%,83.137255%);fill-opacity:1;" d="M 142.847656 109.117188 C 144.085938 109.929688 144.085938 109.929688 144.832031 111.101562 C 144.6875 112.101562 144.515625 113.089844 144.335938 114.082031 C 144.316406 114.976562 144.320312 115.878906 144.335938 116.777344 C 144.355469 119.996094 144.289062 123.199219 144.179688 126.417969 C 144.167969 127.152344 144.167969 127.152344 144.148438 127.898438 C 144.015625 131.503906 143.382812 133.863281 141.363281 136.898438 C 139.488281 136.292969 138.730469 135.160156 137.804688 133.472656 C 137.058594 131.59375 137.1875 129.738281 137.265625 127.753906 C 137.277344 127.339844 137.289062 126.929688 137.296875 126.507812 C 137.316406 125.507812 137.351562 124.507812 137.394531 123.503906 C 137.0625 123.34375 136.738281 123.175781 136.398438 123.007812 C 136.566406 122.84375 136.726562 122.679688 136.898438 122.515625 C 136.941406 121.59375 136.953125 120.671875 136.945312 119.753906 C 136.945312 119.191406 136.941406 118.636719 136.941406 118.0625 C 136.9375 117.476562 136.929688 116.886719 136.925781 116.277344 C 136.921875 115.691406 136.921875 115.105469 136.917969 114.492188 C 136.910156 113.03125 136.910156 111.574219 136.898438 110.113281 C 138.996094 109.207031 140.539062 108.863281 142.847656 109.117188 Z M 142.847656 109.117188 "/>
<path style=" stroke:none;fill-rule:nonzero;fill:rgb(51.764706%,44.313725%,12.54902%);fill-opacity:1;" d="M 61.503906 142.351562 C 63.128906 142.335938 64.746094 142.332031 66.371094 142.324219 C 67.0625 142.316406 67.0625 142.316406 67.765625 142.308594 C 68.210938 142.304688 68.65625 142.304688 69.105469 142.300781 C 69.722656 142.296875 69.722656 142.296875 70.347656 142.292969 C 71.421875 142.351562 71.421875 142.351562 72.914062 142.847656 C 73.71875 142.957031 74.523438 143.039062 75.339844 143.109375 C 75.800781 143.15625 76.265625 143.203125 76.75 143.246094 C 77.234375 143.289062 77.71875 143.332031 78.210938 143.375 C 78.703125 143.417969 79.191406 143.464844 79.699219 143.511719 C 80.910156 143.625 82.121094 143.734375 83.332031 143.835938 C 82.996094 144.003906 82.671875 144.171875 82.335938 144.335938 C 82.335938 144.660156 82.335938 144.992188 82.335938 145.332031 C 81.84375 145.332031 81.351562 145.332031 80.847656 145.332031 C 80.847656 145.65625 80.847656 145.980469 80.847656 146.320312 C 79.863281 146.320312 78.878906 146.320312 77.871094 146.320312 C 77.871094 146.644531 77.871094 146.976562 77.871094 147.3125 C 77.378906 147.3125 76.894531 147.3125 76.382812 147.3125 C 76.382812 147.804688 76.382812 148.292969 76.382812 148.800781 C 65.46875 153.910156 65.46875 153.910156 61.503906 152.765625 C 60.066406 151.679688 59.324219 150.890625 58.53125 149.296875 C 58.453125 148.472656 58.417969 147.644531 58.402344 146.816406 C 58.390625 146.375 58.378906 145.933594 58.363281 145.480469 C 58.417969 145.101562 58.472656 144.726562 58.53125 144.335938 C 60.015625 143.347656 60.015625 143.347656 61.503906 143.347656 C 61.503906 143.011719 61.503906 142.6875 61.503906 142.351562 Z M 61.503906 142.351562 "/>
<path style=" stroke:none;fill-rule:nonzero;fill:rgb(85.098039%,85.098039%,84.313725%);fill-opacity:1;" d="M 153.265625 113.085938 C 153.265625 113.902344 153.265625 114.722656 153.265625 115.566406 C 153.589844 115.566406 153.917969 115.566406 154.253906 115.566406 C 154.253906 115.894531 154.253906 116.226562 154.253906 116.5625 C 153.925781 116.5625 153.601562 116.5625 153.265625 116.5625 C 153.265625 118.355469 153.265625 120.160156 153.265625 122.015625 C 153.589844 122.015625 153.917969 122.015625 154.253906 122.015625 C 154.296875 123.683594 154.328125 125.339844 154.347656 127.007812 C 154.367188 127.707031 154.367188 127.707031 154.390625 128.425781 C 154.417969 131.300781 154.21875 133.382812 152.765625 135.902344 C 151.4375 136.371094 151.4375 136.371094 150.285156 136.398438 C 148 132.792969 148.0625 129.683594 148.179688 125.484375 C 148.191406 124.867188 148.195312 124.246094 148.207031 123.605469 C 148.230469 122.085938 148.261719 120.5625 148.300781 119.035156 C 147.976562 118.878906 147.652344 118.710938 147.3125 118.546875 C 147.710938 118.484375 148.109375 118.417969 148.523438 118.355469 C 148.941406 118.257812 149.355469 118.15625 149.792969 118.050781 C 149.953125 117.722656 150.121094 117.390625 150.285156 117.054688 C 151.308594 116.5 151.308594 116.5 152.269531 116.066406 C 151.945312 116.066406 151.617188 116.066406 151.28125 116.066406 C 151.113281 115.40625 150.957031 114.753906 150.785156 114.082031 C 152.703125 113.085938 152.703125 113.085938 153.265625 113.085938 Z M 153.265625 113.085938 "/>
<path style=" stroke:none;fill-rule:nonzero;fill:rgb(87.058824%,87.058824%,87.058824%);fill-opacity:1;" d="M 142.351562 98.207031 C 143.660156 99.066406 144.75 100.046875 145.820312 101.183594 C 145.671875 102.628906 145.578125 103.433594 144.492188 104.441406 C 143.175781 105.257812 141.996094 105.617188 140.492188 105.992188 C 140.007812 106.113281 139.515625 106.242188 139.011719 106.367188 C 138.644531 106.457031 138.265625 106.542969 137.886719 106.636719 C 137.394531 105.152344 137.394531 105.152344 137.671875 103.417969 C 138.085938 101.628906 138.085938 101.628906 136.898438 100.191406 C 136.898438 99.535156 136.898438 98.886719 136.898438 98.207031 C 138.652344 97.332031 140.5 97.703125 142.351562 98.207031 Z M 142.351562 98.207031 "/>
<path style=" stroke:none;fill-rule:nonzero;fill:rgb(60.784314%,56.078431%,33.333333%);fill-opacity:1;" d="M 67.515625 141.171875 C 67.960938 141.21875 68.402344 141.269531 68.855469 141.320312 C 70.375 141.492188 71.894531 141.671875 73.40625 141.851562 C 75.273438 142.078125 77.136719 142.296875 79.003906 142.511719 C 80.238281 142.652344 81.476562 142.800781 82.707031 142.953125 C 83.5625 143.050781 83.5625 143.050781 84.429688 143.152344 C 85.1875 143.242188 85.1875 143.242188 85.957031 143.335938 C 87.40625 143.347656 88.039062 143.046875 89.28125 142.351562 C 89.773438 142.351562 90.261719 142.351562 90.765625 142.351562 C 90.765625 142.675781 90.765625 143.011719 90.765625 143.347656 C 90.441406 143.347656 90.117188 143.347656 89.777344 143.347656 C 89.777344 143.671875 89.777344 143.996094 89.777344 144.335938 C 89.503906 144.371094 89.234375 144.414062 88.957031 144.449219 C 85.71875 144.984375 82.855469 146.027344 79.855469 147.296875 C 77.464844 148.300781 77.464844 148.300781 76.382812 148.300781 C 76.382812 147.976562 76.382812 147.652344 76.382812 147.3125 C 76.875 147.3125 77.367188 147.3125 77.871094 147.3125 C 77.871094 146.984375 77.871094 146.65625 77.871094 146.320312 C 78.855469 146.320312 79.839844 146.320312 80.847656 146.320312 C 80.847656 145.992188 80.847656 145.667969 80.847656 145.332031 C 81.339844 145.332031 81.832031 145.332031 82.335938 145.332031 C 82.335938 144.996094 82.335938 144.671875 82.335938 144.335938 C 81.921875 144.292969 81.921875 144.292969 81.496094 144.253906 C 80.238281 144.125 78.976562 144 77.71875 143.871094 C 77.0625 143.804688 77.0625 143.804688 76.394531 143.738281 C 75.972656 143.695312 75.550781 143.652344 75.117188 143.609375 C 74.730469 143.570312 74.34375 143.535156 73.941406 143.496094 C 72.914062 143.347656 72.914062 143.347656 71.421875 142.847656 C 70.652344 142.773438 69.878906 142.722656 69.105469 142.691406 C 68.445312 142.660156 68.445312 142.660156 67.765625 142.625 C 67.304688 142.609375 66.847656 142.585938 66.371094 142.570312 C 65.902344 142.546875 65.4375 142.527344 64.957031 142.503906 C 63.808594 142.449219 62.652344 142.398438 61.503906 142.351562 C 61.503906 142.675781 61.503906 143.011719 61.503906 143.347656 C 60.683594 143.671875 59.867188 143.996094 59.019531 144.335938 C 59.519531 142.894531 59.980469 142.378906 61.261719 141.519531 C 63.523438 140.664062 65.160156 140.871094 67.515625 141.171875 Z M 67.515625 141.171875 "/>
<path style=" stroke:none;fill-rule:nonzero;fill:rgb(86.27451%,84.313725%,82.352941%);fill-opacity:1;" d="M 132.929688 124.992188 C 133.089844 126.300781 133.257812 127.609375 133.421875 128.964844 C 133.585938 128.964844 133.753906 128.964844 133.917969 128.964844 C 134.050781 131.097656 134.105469 132.914062 133.363281 134.941406 C 132.433594 135.902344 132.433594 135.902344 130.945312 136.214844 C 129.453125 135.902344 129.453125 135.902344 128.558594 134.785156 C 127.53125 132.410156 127.417969 130.574219 127.46875 127.96875 C 126.820312 127.800781 126.160156 127.640625 125.484375 127.46875 C 126.882812 127.164062 126.882812 127.164062 128.464844 126.980469 C 128.957031 127.304688 129.449219 127.628906 129.949219 127.96875 C 129.789062 128.292969 129.625 128.625 129.453125 128.964844 C 129.128906 128.796875 128.800781 128.628906 128.464844 128.464844 C 128.464844 129.773438 128.464844 131.085938 128.464844 132.433594 C 128.789062 132.433594 129.117188 132.433594 129.453125 132.433594 C 129.621094 132.757812 129.785156 133.082031 129.949219 133.421875 C 130.503906 132.238281 130.503906 132.238281 130.945312 130.945312 C 130.78125 130.613281 130.613281 130.289062 130.449219 129.949219 C 130.292969 128.527344 130.292969 128.527344 130.449219 126.980469 C 132.066406 124.992188 132.066406 124.992188 132.929688 124.992188 Z M 132.929688 124.992188 "/>
<path style=" stroke:none;fill-rule:nonzero;fill:rgb(90.196078%,90.196078%,90.196078%);fill-opacity:1;" d="M 86.800781 94.238281 C 87.941406 94.238281 89.09375 94.238281 90.269531 94.238281 C 89.777344 94.402344 89.292969 94.570312 88.785156 94.734375 C 88.949219 95.226562 89.109375 95.71875 89.28125 96.222656 C 88.957031 96.222656 88.621094 96.222656 88.285156 96.222656 C 88.285156 99.5 88.285156 102.769531 88.285156 106.148438 C 88.617188 106.148438 88.945312 106.148438 89.28125 106.148438 C 89.28125 111.542969 89.28125 116.949219 89.28125 122.515625 C 88.957031 122.515625 88.621094 122.515625 88.285156 122.515625 C 88.285156 125.785156 88.285156 129.0625 88.285156 132.433594 C 88.128906 132.433594 87.960938 132.433594 87.792969 132.433594 C 87.789062 132 87.785156 131.5625 87.777344 131.113281 C 87.730469 127.015625 87.679688 122.910156 87.625 118.808594 C 87.597656 116.707031 87.570312 114.59375 87.546875 112.488281 C 87.519531 110.453125 87.5 108.417969 87.464844 106.382812 C 87.453125 105.605469 87.453125 104.828125 87.441406 104.054688 C 87.429688 102.960938 87.410156 101.878906 87.402344 100.785156 C 87.390625 100.167969 87.382812 99.550781 87.375 98.910156 C 87.304688 97.316406 87.101562 95.808594 86.800781 94.238281 Z M 86.800781 94.238281 "/>
<path style=" stroke:none;fill-rule:nonzero;fill:rgb(67.45098%,60.392157%,37.647059%);fill-opacity:1;" d="M 144.335938 150.285156 C 146.132812 150.277344 147.933594 150.265625 149.730469 150.257812 C 150.5 150.25 150.5 150.25 151.285156 150.242188 C 151.773438 150.242188 152.261719 150.238281 152.761719 150.238281 C 153.441406 150.234375 153.441406 150.234375 154.132812 150.230469 C 155.25 150.285156 155.25 150.285156 156.238281 150.785156 C 157.386719 150.886719 158.53125 150.964844 159.679688 151.03125 C 163.015625 151.226562 163.015625 151.226562 164.667969 151.777344 C 165.769531 151.824219 166.863281 151.839844 167.957031 151.835938 C 168.828125 151.839844 168.828125 151.839844 169.710938 151.839844 C 171.070312 151.933594 171.070312 151.933594 171.617188 151.28125 C 172.613281 151.164062 173.621094 151.074219 174.625 151.003906 C 175.445312 150.941406 175.445312 150.941406 176.285156 150.875 C 176.917969 150.828125 176.917969 150.828125 177.566406 150.785156 C 175.714844 152.636719 173.140625 152.871094 170.621094 153.265625 C 169.324219 153.257812 168.074219 153.21875 166.785156 153.121094 C 166.421875 153.09375 166.0625 153.074219 165.683594 153.042969 C 161.359375 152.742188 157.050781 152.246094 152.738281 151.742188 C 151.917969 151.652344 151.097656 151.558594 150.273438 151.464844 C 148.292969 151.242188 146.3125 151.011719 144.335938 150.785156 C 144.335938 150.617188 144.335938 150.457031 144.335938 150.285156 Z M 144.335938 150.285156 "/>
<path style=" stroke:none;fill-rule:nonzero;fill:rgb(85.098039%,80%,68.235294%);fill-opacity:1;" d="M 147.3125 118.546875 C 147.804688 118.546875 148.292969 118.546875 148.800781 118.546875 C 148.808594 118.9375 148.816406 119.324219 148.824219 119.734375 C 148.859375 121.515625 148.910156 123.296875 148.957031 125.089844 C 148.96875 125.703125 148.976562 126.320312 148.988281 126.957031 C 149.007812 127.558594 149.019531 128.148438 149.042969 128.765625 C 149.058594 129.308594 149.066406 129.859375 149.078125 130.421875 C 149.316406 132.085938 149.832031 133.050781 150.785156 134.417969 C 151.867188 133.757812 151.867188 133.757812 152.765625 132.433594 C 153.09375 130.660156 153.113281 128.898438 153.136719 127.101562 C 153.164062 126.367188 153.164062 126.367188 153.183594 125.621094 C 153.222656 124.417969 153.242188 123.21875 153.265625 122.015625 C 153.589844 122.015625 153.917969 122.015625 154.253906 122.015625 C 154.296875 123.683594 154.328125 125.339844 154.347656 127.007812 C 154.367188 127.707031 154.367188 127.707031 154.390625 128.425781 C 154.417969 131.300781 154.21875 133.382812 152.765625 135.902344 C 151.4375 136.371094 151.4375 136.371094 150.285156 136.398438 C 148 132.792969 148.0625 129.683594 148.179688 125.484375 C 148.191406 124.867188 148.195312 124.246094 148.207031 123.605469 C 148.230469 122.085938 148.261719 120.5625 148.300781 119.035156 C 147.976562 118.878906 147.652344 118.710938 147.3125 118.546875 Z M 147.3125 118.546875 "/>
<path style=" stroke:none;fill-rule:nonzero;fill:rgb(72.54902%,61.176471%,34.901961%);fill-opacity:1;" d="M 180.472656 115.292969 C 181.164062 115.972656 181.164062 115.972656 182.03125 117.054688 C 181.707031 117.546875 181.375 118.039062 181.035156 118.546875 C 180.550781 118.378906 180.058594 118.214844 179.550781 118.050781 C 179.550781 117.722656 179.550781 117.390625 179.550781 117.054688 C 179.226562 116.894531 178.898438 116.726562 178.5625 116.5625 C 178.316406 116.070312 178.316406 116.070312 178.066406 115.566406 C 176.914062 115.363281 175.753906 115.199219 174.59375 115.070312 C 174.59375 114.578125 174.59375 114.09375 174.59375 113.582031 C 172.34375 113.148438 170.214844 113.023438 167.925781 113.027344 C 166.988281 113.027344 166.988281 113.027344 166.035156 113.023438 C 164.210938 113.085938 162.503906 113.289062 160.703125 113.582031 C 166.308594 109.847656 175.339844 111.3125 180.472656 115.292969 Z M 180.472656 115.292969 "/>
<path style=" stroke:none;fill-rule:nonzero;fill:rgb(58.431373%,48.235294%,21.960784%);fill-opacity:1;" d="M 148.300781 119.035156 C 148.308594 119.425781 148.320312 119.8125 148.328125 120.214844 C 148.363281 121.984375 148.410156 123.75 148.457031 125.523438 C 148.472656 126.128906 148.484375 126.738281 148.492188 127.367188 C 148.585938 130.5625 148.726562 133.082031 150.285156 135.902344 C 151.515625 135.65625 151.515625 135.65625 152.765625 135.40625 C 153.09375 134.429688 153.425781 133.445312 153.761719 132.433594 C 153.921875 132.433594 154.089844 132.433594 154.253906 132.433594 C 154.351562 135.4375 154.351562 135.4375 154.253906 136.398438 C 153.265625 137.394531 153.265625 137.394531 151.53125 137.488281 C 149.792969 137.394531 149.792969 137.394531 148.800781 136.898438 C 147.613281 133.445312 147.691406 130.097656 147.746094 126.480469 C 147.753906 125.910156 147.757812 125.332031 147.757812 124.746094 C 147.769531 123.339844 147.789062 121.933594 147.808594 120.53125 C 146.828125 120.6875 145.84375 120.855469 144.832031 121.019531 C 144.832031 120.535156 144.832031 120.042969 144.832031 119.535156 C 146.320312 119.035156 146.320312 119.035156 148.300781 119.035156 Z M 148.300781 119.035156 "/>
<path style=" stroke:none;fill-rule:nonzero;fill:rgb(67.843137%,55.294118%,27.058824%);fill-opacity:1;" d="M 160.703125 113.582031 C 160.207031 114.578125 160.207031 114.578125 159.214844 115.566406 C 159.214844 116.226562 159.214844 116.878906 159.214844 117.550781 C 158.558594 117.71875 157.90625 117.875 157.234375 118.050781 C 157.234375 117.722656 157.234375 117.390625 157.234375 117.054688 C 156.25 117.546875 156.25 117.546875 155.25 118.050781 C 155.082031 117.558594 154.921875 117.066406 154.75 116.5625 C 154.589844 118.355469 154.425781 120.160156 154.253906 122.015625 C 153.925781 122.015625 153.601562 122.015625 153.265625 122.015625 C 153.265625 120.214844 153.265625 118.414062 153.265625 116.5625 C 154.222656 116.0625 155.183594 115.5625 156.144531 115.070312 C 156.679688 114.796875 157.214844 114.523438 157.769531 114.238281 C 159.214844 113.582031 159.214844 113.582031 160.703125 113.582031 Z M 160.703125 113.582031 "/>
<path style=" stroke:none;fill-rule:nonzero;fill:rgb(90.980392%,90.980392%,90.980392%);fill-opacity:1;" d="M 94.238281 103.167969 C 94.570312 103.167969 94.894531 103.167969 95.234375 103.167969 C 95.066406 108.082031 94.90625 112.984375 94.734375 118.050781 C 98.050781 115.699219 98.050781 115.699219 100.4375 112.902344 C 100.675781 112.558594 100.917969 112.21875 101.164062 111.867188 C 101.339844 111.617188 101.503906 111.363281 101.679688 111.101562 C 102.007812 111.429688 102.332031 111.761719 102.667969 112.097656 C 98.097656 118.265625 98.097656 118.265625 94.238281 119.035156 C 94.238281 113.804688 94.238281 108.566406 94.238281 103.167969 Z M 94.238281 103.167969 "/>
<path style=" stroke:none;fill-rule:nonzero;fill:rgb(64.705882%,59.215686%,37.254902%);fill-opacity:1;" d="M 91.761719 144.335938 C 93.558594 144.320312 95.351562 144.316406 97.152344 144.304688 C 97.917969 144.300781 97.917969 144.300781 98.703125 144.292969 C 99.195312 144.289062 99.683594 144.289062 100.191406 144.285156 C 100.871094 144.28125 100.871094 144.28125 101.554688 144.277344 C 102.667969 144.335938 102.667969 144.335938 103.664062 144.832031 C 104.949219 144.964844 106.238281 145.050781 107.523438 145.144531 C 107.890625 145.199219 108.25 145.265625 108.621094 145.332031 C 108.867188 145.820312 108.867188 145.820312 109.117188 146.320312 C 105.332031 146.414062 101.683594 146.035156 97.925781 145.578125 C 97.335938 145.503906 96.742188 145.433594 96.125 145.359375 C 94.671875 145.191406 93.21875 145.007812 91.761719 144.832031 C 91.761719 144.664062 91.761719 144.507812 91.761719 144.335938 Z M 91.761719 144.335938 "/>
<path style=" stroke:none;fill-rule:nonzero;fill:rgb(60.392157%,50.980392%,23.529412%);fill-opacity:1;" d="M 133.917969 127.46875 C 134.085938 127.46875 134.246094 127.46875 134.417969 127.46875 C 134.441406 128.675781 134.460938 129.871094 134.480469 131.066406 C 134.488281 131.578125 134.488281 131.578125 134.5 132.09375 C 134.535156 135.46875 134.535156 135.46875 133.421875 136.898438 C 132.113281 137.464844 130.867188 137.550781 129.453125 137.394531 C 128.214844 136.398438 128.214844 136.398438 127.46875 134.914062 C 127.347656 133.023438 127.347656 133.023438 127.46875 131.4375 C 128.230469 132.894531 128.863281 134.375 129.453125 135.902344 C 131.1875 135.519531 131.1875 135.519531 132.929688 134.914062 C 133.421875 133.421875 133.464844 132.464844 133.421875 130.910156 C 133.371094 128.578125 133.371094 128.578125 133.917969 127.46875 Z M 133.917969 127.46875 "/>
<path style=" stroke:none;fill-rule:nonzero;fill:rgb(93.333333%,93.333333%,93.333333%);fill-opacity:1;" d="M 65.46875 104.652344 C 65.960938 104.820312 66.453125 104.988281 66.964844 105.152344 C 66.621094 106.296875 66.277344 107.441406 65.929688 108.578125 C 65.605469 109.671875 65.289062 110.761719 64.980469 111.863281 C 64.820312 112.441406 64.648438 113.019531 64.480469 113.613281 C 64.328125 114.164062 64.171875 114.710938 64.011719 115.273438 C 63.839844 115.695312 63.671875 116.125 63.484375 116.5625 C 62.992188 116.722656 62.507812 116.886719 62 117.054688 C 62.832031 112.820312 64.15625 108.761719 65.46875 104.652344 Z M 65.46875 104.652344 "/>
<path style=" stroke:none;fill-rule:nonzero;fill:rgb(92.941176%,92.941176%,92.941176%);fill-opacity:1;" d="M 113.582031 103.167969 C 113.75 103.167969 113.910156 103.167969 114.082031 103.167969 C 114.082031 109.058594 114.082031 114.953125 114.082031 121.019531 C 113.914062 121.019531 113.753906 121.019531 113.582031 121.019531 C 112.960938 117.679688 112.460938 114.507812 112.59375 111.101562 C 112.921875 111.101562 113.246094 111.101562 113.582031 111.101562 C 113.582031 108.484375 113.582031 105.863281 113.582031 103.167969 Z M 113.582031 103.167969 "/>
<path style=" stroke:none;fill-rule:nonzero;fill:rgb(94.117647%,94.117647%,94.117647%);fill-opacity:1;" d="M 88.785156 106.148438 C 88.949219 106.148438 89.109375 106.148438 89.28125 106.148438 C 89.28125 111.542969 89.28125 116.949219 89.28125 122.515625 C 88.957031 122.515625 88.621094 122.515625 88.285156 122.515625 C 88.285156 125.785156 88.285156 129.0625 88.285156 132.433594 C 88.128906 132.433594 87.960938 132.433594 87.792969 132.433594 C 87.777344 130.621094 87.769531 128.820312 87.757812 127.007812 C 87.753906 126.492188 87.75 125.972656 87.746094 125.441406 C 87.746094 124.703125 87.746094 124.703125 87.746094 123.957031 C 87.746094 123.5 87.742188 123.046875 87.738281 122.574219 C 87.792969 121.519531 87.792969 121.519531 88.285156 121.019531 C 88.371094 119.921875 88.414062 118.824219 88.445312 117.722656 C 88.457031 117.386719 88.46875 117.058594 88.472656 116.71875 C 88.511719 115.664062 88.535156 114.609375 88.566406 113.554688 C 88.585938 112.835938 88.613281 112.121094 88.628906 111.410156 C 88.683594 109.652344 88.734375 107.894531 88.785156 106.148438 Z M 88.785156 106.148438 "/>
<path style=" stroke:none;fill-rule:nonzero;fill:rgb(66.666667%,61.960784%,41.568627%);fill-opacity:1;" d="M 68.382812 141.269531 C 69.109375 141.347656 69.109375 141.347656 69.851562 141.429688 C 71.035156 141.5625 72.222656 141.703125 73.40625 141.851562 C 73.40625 142.019531 73.40625 142.1875 73.40625 142.351562 C 69.484375 142.351562 65.554688 142.351562 61.503906 142.351562 C 61.503906 142.675781 61.503906 143.011719 61.503906 143.347656 C 60.683594 143.671875 59.867188 143.996094 59.019531 144.335938 C 59.507812 142.925781 59.980469 142.382812 61.207031 141.511719 C 63.710938 140.601562 65.78125 140.933594 68.382812 141.269531 Z M 68.382812 141.269531 "/>
<path style=" stroke:none;fill-rule:nonzero;fill:rgb(59.607843%,50.980392%,25.882353%);fill-opacity:1;" d="M 113.085938 133.421875 C 113.394531 133.832031 113.703125 134.246094 114.015625 134.664062 C 114.972656 136.085938 114.972656 136.085938 116.683594 136.058594 C 117.136719 136.007812 117.582031 135.957031 118.050781 135.902344 C 117.882812 136.394531 117.722656 136.886719 117.550781 137.394531 C 114.808594 137.582031 114.808594 137.582031 113.660156 136.648438 C 112.273438 135.683594 111.410156 135.75 109.738281 135.808594 C 109.25 135.824219 108.765625 135.839844 108.261719 135.847656 C 107.890625 135.871094 107.515625 135.890625 107.132812 135.902344 C 107.445312 135.753906 107.75 135.609375 108.066406 135.457031 C 109.152344 134.9375 109.152344 134.9375 110.113281 134.101562 C 111.101562 133.421875 111.101562 133.421875 113.085938 133.421875 Z M 113.085938 133.421875 "/>
<path style=" stroke:none;fill-rule:nonzero;fill:rgb(91.372549%,90.980392%,89.803922%);fill-opacity:1;" d="M 104.652344 127.46875 C 105.226562 128.042969 105.789062 128.605469 106.351562 129.171875 C 106.925781 129.738281 107.5 130.300781 108.074219 130.855469 C 108.386719 131.160156 108.703125 131.46875 109.027344 131.777344 C 109.328125 132.066406 109.628906 132.355469 109.933594 132.652344 C 110.605469 133.421875 110.605469 133.421875 110.605469 134.417969 C 108.503906 134.171875 107.644531 133.65625 106.296875 132.027344 C 106.007812 131.6875 105.71875 131.34375 105.425781 131 C 104.703125 130.019531 104.164062 129.070312 103.664062 127.96875 C 103.992188 127.800781 104.316406 127.640625 104.652344 127.46875 Z M 104.652344 127.46875 "/>
<path style=" stroke:none;fill-rule:nonzero;fill:rgb(91.764706%,92.156863%,90.588235%);fill-opacity:1;" d="M 132.433594 114.082031 C 132.597656 114.082031 132.757812 114.082031 132.929688 114.082031 C 133.089844 117.679688 133.257812 121.28125 133.421875 124.992188 C 132.769531 125.15625 132.113281 125.320312 131.4375 125.484375 C 131.4375 122.539062 131.4375 119.597656 131.4375 116.5625 C 131.605469 116.5625 131.769531 116.5625 131.933594 116.5625 C 132.101562 115.742188 132.261719 114.921875 132.433594 114.082031 Z M 132.433594 114.082031 "/>
<path style=" stroke:none;fill-rule:nonzero;fill:rgb(73.333333%,63.529412%,40%);fill-opacity:1;" d="M 187.984375 125.984375 C 190.019531 129.035156 189.789062 132.9375 189.222656 136.464844 C 189.140625 136.765625 189.0625 137.074219 188.980469 137.394531 C 188.8125 137.394531 188.644531 137.394531 188.480469 137.394531 C 187.863281 135.023438 187.925781 132.71875 187.957031 130.292969 C 187.957031 129.882812 187.960938 129.460938 187.960938 129.035156 C 187.960938 128.019531 187.972656 127 187.984375 125.984375 Z M 187.984375 125.984375 "/>
<path style=" stroke:none;fill-rule:nonzero;fill:rgb(87.058824%,85.098039%,79.607843%);fill-opacity:1;" d="M 153.265625 113.085938 C 153.265625 113.902344 153.265625 114.722656 153.265625 115.566406 C 153.589844 115.566406 153.917969 115.566406 154.253906 115.566406 C 154.253906 115.894531 154.253906 116.226562 154.253906 116.5625 C 153.925781 116.5625 153.601562 116.5625 153.265625 116.5625 C 153.265625 118.523438 153.265625 120.488281 153.265625 122.515625 C 152.167969 120.871094 152.164062 120.355469 152.214844 118.453125 C 152.214844 118.003906 152.226562 117.558594 152.238281 117.097656 C 152.25 116.757812 152.261719 116.417969 152.269531 116.066406 C 151.945312 116.066406 151.617188 116.066406 151.28125 116.066406 C 151.113281 115.40625 150.957031 114.753906 150.785156 114.082031 C 152.703125 113.085938 152.703125 113.085938 153.265625 113.085938 Z M 153.265625 113.085938 "/>
<path style=" stroke:none;fill-rule:nonzero;fill:rgb(65.490196%,59.607843%,37.647059%);fill-opacity:1;" d="M 109.117188 146.320312 C 110.707031 146.304688 112.300781 146.300781 113.898438 146.289062 C 114.566406 146.28125 114.566406 146.28125 115.253906 146.277344 C 117.566406 146.265625 119.738281 146.335938 122.015625 146.816406 C 122.015625 147.140625 122.015625 147.46875 122.015625 147.808594 C 113.160156 147.328125 113.160156 147.328125 109.117188 146.816406 C 109.117188 146.648438 109.117188 146.492188 109.117188 146.320312 Z M 109.117188 146.320312 "/>
<path style=" stroke:none;fill-rule:nonzero;fill:rgb(83.529412%,78.039216%,67.058824%);fill-opacity:1;" d="M 136.398438 123.007812 C 137.054688 123.007812 137.710938 123.007812 138.382812 123.007812 C 138.773438 124.386719 138.941406 125.601562 138.929688 127.027344 C 138.925781 127.59375 138.925781 127.59375 138.925781 128.164062 C 138.917969 128.546875 138.914062 128.933594 138.910156 129.332031 C 138.90625 129.726562 138.90625 130.121094 138.902344 130.519531 C 138.894531 131.488281 138.894531 132.453125 138.882812 133.421875 C 138.554688 133.421875 138.222656 133.421875 137.886719 133.421875 C 137.316406 132.285156 137.335938 131.644531 137.34375 130.378906 C 137.34375 129.980469 137.34375 129.585938 137.34375 129.167969 C 137.351562 128.753906 137.355469 128.335938 137.359375 127.902344 C 137.363281 127.484375 137.363281 127.066406 137.367188 126.632812 C 137.375 125.585938 137.382812 124.546875 137.394531 123.503906 C 137.0625 123.34375 136.738281 123.175781 136.398438 123.007812 Z M 136.398438 123.007812 "/>
<path style=" stroke:none;fill-rule:nonzero;fill:rgb(95.294118%,95.686275%,95.294118%);fill-opacity:1;" d="M 154.253906 105.152344 C 154.417969 105.152344 154.585938 105.152344 154.75 105.152344 C 154.589844 108.589844 154.425781 112.023438 154.253906 115.566406 C 153.925781 115.566406 153.601562 115.566406 153.265625 115.566406 C 153.230469 114.015625 153.21875 112.46875 153.199219 110.917969 C 153.191406 110.476562 153.183594 110.035156 153.179688 109.582031 C 153.175781 109.15625 153.171875 108.738281 153.167969 108.300781 C 153.164062 107.910156 153.15625 107.523438 153.148438 107.121094 C 153.265625 106.148438 153.265625 106.148438 154.253906 105.152344 Z M 154.253906 105.152344 "/>
<path style=" stroke:none;fill-rule:nonzero;fill:rgb(89.019608%,89.019608%,89.019608%);fill-opacity:1;" d="M 56.546875 130.449219 C 57.035156 131.101562 57.523438 131.757812 58.03125 132.433594 C 57.292969 133.664062 57.292969 133.664062 56.546875 134.914062 C 56.871094 135.074219 57.199219 135.238281 57.535156 135.40625 C 55.679688 136.898438 55.679688 136.898438 54.5625 136.898438 C 54.855469 134.488281 55.539062 132.628906 56.546875 130.449219 Z M 56.546875 130.449219 "/>
<path style=" stroke:none;fill-rule:nonzero;fill:rgb(79.607843%,75.686275%,65.882353%);fill-opacity:1;" d="M 132.929688 124.992188 C 133.089844 126.300781 133.257812 127.609375 133.421875 128.964844 C 133.585938 128.964844 133.753906 128.964844 133.917969 128.964844 C 133.917969 130.433594 133.917969 131.90625 133.917969 133.421875 C 133.757812 133.421875 133.59375 133.421875 133.421875 133.421875 C 133.421875 132.445312 133.421875 131.460938 133.421875 130.449219 C 132.769531 130.125 132.113281 129.789062 131.4375 129.453125 C 131.4375 128.144531 131.4375 126.832031 131.4375 125.484375 C 132.433594 124.992188 132.433594 124.992188 132.929688 124.992188 Z M 132.929688 124.992188 "/>
<path style=" stroke:none;fill-rule:nonzero;fill:rgb(57.254902%,53.333333%,29.803922%);fill-opacity:1;" d="M 59.519531 143.835938 C 59.84375 144.171875 60.175781 144.496094 60.515625 144.832031 C 60.378906 145.667969 60.207031 146.492188 60.015625 147.3125 C 59.894531 148.617188 59.894531 148.617188 60.015625 149.792969 C 60.339844 150.121094 60.667969 150.445312 61.007812 150.785156 C 61.007812 151.109375 61.007812 151.441406 61.007812 151.777344 C 59.519531 151.28125 59.519531 151.28125 58.933594 150.421875 C 58.457031 149.109375 58.429688 148.085938 58.464844 146.691406 C 58.480469 146.027344 58.480469 146.027344 58.488281 145.351562 C 58.503906 145.015625 58.515625 144.679688 58.53125 144.335938 C 58.855469 144.175781 59.179688 144.007812 59.519531 143.835938 Z M 59.519531 143.835938 "/>
<path style=" stroke:none;fill-rule:nonzero;fill:rgb(53.333333%,44.705882%,11.764706%);fill-opacity:1;" d="M 111.601562 143.835938 C 112.59375 144.519531 112.59375 144.519531 113.582031 145.332031 C 113.582031 145.65625 113.582031 145.980469 113.582031 146.320312 C 110.886719 146.429688 108.6875 146.371094 106.148438 145.332031 C 106.148438 145.164062 106.148438 144.996094 106.148438 144.832031 C 106.609375 144.789062 106.609375 144.789062 107.085938 144.742188 C 107.695312 144.679688 107.695312 144.679688 108.316406 144.613281 C 108.71875 144.574219 109.117188 144.535156 109.539062 144.492188 C 110.628906 144.390625 110.628906 144.390625 111.601562 143.835938 Z M 111.601562 143.835938 "/>
<path style=" stroke:none;fill-rule:nonzero;fill:rgb(61.568627%,54.901961%,29.019608%);fill-opacity:1;" d="M 96.71875 140.367188 C 96.3125 140.757812 95.902344 141.144531 95.480469 141.546875 C 94.128906 142.671875 94.128906 142.671875 94.238281 143.835938 C 93.417969 143.679688 92.601562 143.511719 91.761719 143.347656 C 91.761719 143.011719 91.761719 142.6875 91.761719 142.351562 C 91.429688 142.1875 91.105469 142.027344 90.765625 141.851562 C 91.570312 141.511719 92.378906 141.171875 93.183594 140.832031 C 93.636719 140.640625 94.085938 140.449219 94.546875 140.253906 C 95.730469 139.871094 95.730469 139.871094 96.71875 140.367188 Z M 96.71875 140.367188 "/>
<path style=" stroke:none;fill-rule:nonzero;fill:rgb(82.352941%,80.392157%,71.372549%);fill-opacity:1;" d="M 129.453125 127.46875 C 129.453125 127.960938 129.453125 128.453125 129.453125 128.964844 C 129.128906 128.796875 128.800781 128.628906 128.464844 128.464844 C 128.464844 129.449219 128.464844 130.425781 128.464844 131.4375 C 128.140625 131.4375 127.804688 131.4375 127.46875 131.4375 C 127.46875 130.292969 127.46875 129.152344 127.46875 127.96875 C 126.820312 127.800781 126.160156 127.640625 125.484375 127.46875 C 127.121094 126.929688 127.824219 127.074219 129.453125 127.46875 Z M 129.453125 127.46875 "/>
<path style=" stroke:none;fill-rule:nonzero;fill:rgb(56.078431%,45.098039%,7.843137%);fill-opacity:1;" d="M 111.601562 135.40625 C 112.109375 135.621094 112.109375 135.621094 112.625 135.84375 C 114.238281 136.464844 115.882812 136.933594 117.550781 137.394531 C 116.019531 138.304688 114.871094 138.699219 113.085938 138.382812 C 111.601562 136.378906 111.601562 136.378906 111.601562 135.40625 Z M 111.601562 135.40625 "/>
<path style=" stroke:none;fill-rule:nonzero;fill:rgb(65.490196%,58.039216%,34.901961%);fill-opacity:1;" d="M 102.667969 137.886719 C 102.34375 138.542969 102.019531 139.195312 101.679688 139.871094 C 100.53125 139.710938 99.386719 139.542969 98.207031 139.378906 C 98.046875 139.703125 97.878906 140.03125 97.714844 140.367188 C 97.382812 140.042969 97.054688 139.714844 96.71875 139.378906 C 97.527344 139.03125 98.332031 138.691406 99.136719 138.355469 C 99.585938 138.167969 100.039062 137.972656 100.496094 137.78125 C 101.679688 137.394531 101.679688 137.394531 102.667969 137.886719 Z M 102.667969 137.886719 "/>
<path style=" stroke:none;fill-rule:nonzero;fill:rgb(66.666667%,54.509804%,23.921569%);fill-opacity:1;" d="M 186.496094 122.515625 C 187.882812 124.074219 188.15625 125.027344 188.074219 127.101562 C 188.058594 127.542969 188.050781 127.988281 188.035156 128.4375 C 188.015625 128.773438 188.003906 129.109375 187.984375 129.453125 C 187.492188 129.292969 187 129.128906 186.496094 128.964844 C 186.636719 128.472656 186.636719 128.472656 186.773438 127.96875 C 187.054688 126.039062 186.792969 124.441406 186.496094 122.515625 Z M 186.496094 122.515625 "/>
<path style=" stroke:none;fill-rule:nonzero;fill:rgb(93.333333%,93.333333%,93.333333%);fill-opacity:1;" d="M 78.867188 117.054688 C 79.722656 118.347656 80.09375 119.109375 80.480469 120.558594 C 80.574219 120.902344 80.667969 121.246094 80.765625 121.601562 C 80.789062 121.898438 80.816406 122.199219 80.847656 122.515625 C 80.523438 122.839844 80.191406 123.164062 79.851562 123.503906 C 79.59375 122.804688 79.332031 122.097656 79.078125 121.398438 C 78.933594 121.007812 78.789062 120.613281 78.640625 120.207031 C 78.347656 118.941406 78.445312 118.265625 78.867188 117.054688 Z M 78.867188 117.054688 "/>
<path style=" stroke:none;fill-rule:nonzero;fill:rgb(68.235294%,52.54902%,19.607843%);fill-opacity:1;" d="M 178.5625 115.566406 C 179.734375 115.476562 179.734375 115.476562 181.035156 115.566406 C 181.371094 116.058594 181.695312 116.550781 182.03125 117.054688 C 181.539062 117.792969 181.539062 117.792969 181.035156 118.546875 C 180.550781 118.378906 180.058594 118.214844 179.550781 118.050781 C 179.550781 117.722656 179.550781 117.390625 179.550781 117.054688 C 179.226562 116.894531 178.898438 116.726562 178.5625 116.5625 C 178.5625 116.230469 178.5625 115.90625 178.5625 115.566406 Z M 178.5625 115.566406 "/>
<path style=" stroke:none;fill-rule:nonzero;fill:rgb(67.45098%,59.215686%,36.078431%);fill-opacity:1;" d="M 177.566406 150.785156 C 176.367188 151.984375 175.683594 152.035156 174.035156 152.332031 C 173.355469 152.457031 173.355469 152.457031 172.664062 152.585938 C 172.316406 152.648438 171.976562 152.703125 171.617188 152.765625 C 171.617188 152.273438 171.617188 151.78125 171.617188 151.28125 C 173.625 150.964844 175.539062 150.71875 177.566406 150.785156 Z M 177.566406 150.785156 "/>
<path style=" stroke:none;fill-rule:nonzero;fill:rgb(64.313725%,47.843137%,10.588235%);fill-opacity:1;" d="M 167.648438 112.59375 C 167.15625 113.324219 167.15625 113.324219 166.652344 114.082031 C 166.820312 114.40625 166.988281 114.734375 167.152344 115.070312 C 165.679688 114.578125 164.207031 114.09375 162.6875 113.582031 C 164.496094 112.378906 165.523438 112.511719 167.648438 112.59375 Z M 167.648438 112.59375 "/>
<path style=" stroke:none;fill-rule:nonzero;fill:rgb(73.333333%,69.803922%,55.686275%);fill-opacity:1;" d="M 90.765625 142.351562 C 90.765625 142.675781 90.765625 143.011719 90.765625 143.347656 C 90.441406 143.347656 90.117188 143.347656 89.777344 143.347656 C 89.777344 143.671875 89.777344 143.996094 89.777344 144.335938 C 88.101562 144.398438 88.101562 144.398438 86.300781 144.335938 C 85.976562 144.007812 85.652344 143.683594 85.3125 143.347656 C 85.78125 143.269531 86.25 143.203125 86.734375 143.125 C 88.277344 142.851562 89.199219 142.351562 90.765625 142.351562 Z M 90.765625 142.351562 "/>
<path style=" stroke:none;fill-rule:nonzero;fill:rgb(92.941176%,92.941176%,92.941176%);fill-opacity:1;" d="M 102.667969 107.132812 C 103.328125 107.132812 103.980469 107.132812 104.652344 107.132812 C 104.988281 107.792969 105.3125 108.445312 105.648438 109.117188 C 105.351562 109.183594 105.054688 109.246094 104.746094 109.304688 C 103.535156 109.589844 103.535156 109.589844 102.179688 110.605469 C 102.339844 109.460938 102.503906 108.316406 102.667969 107.132812 Z M 102.667969 107.132812 "/>
<path style=" stroke:none;fill-rule:nonzero;fill:rgb(95.294118%,95.294118%,95.294118%);fill-opacity:1;" d="M 137.886719 104.164062 C 138.050781 104.488281 138.214844 104.8125 138.382812 105.152344 C 140.019531 104.988281 141.65625 104.824219 143.347656 104.652344 C 141.519531 105.570312 139.847656 106.109375 137.886719 106.636719 C 137.726562 106.152344 137.558594 105.660156 137.394531 105.152344 C 137.554688 104.824219 137.722656 104.5 137.886719 104.164062 Z M 137.886719 104.164062 "/>
<path style=" stroke:none;fill-rule:nonzero;fill:rgb(68.235294%,60%,34.901961%);fill-opacity:1;" d="M 187.484375 137.394531 C 187.816406 137.554688 188.144531 137.722656 188.480469 137.886719 C 188.253906 138.609375 188.027344 139.332031 187.800781 140.058594 C 187.671875 140.460938 187.542969 140.863281 187.414062 141.277344 C 186.992188 142.351562 186.992188 142.351562 186 143.347656 C 186 142.363281 186 141.378906 186 140.367188 C 186.324219 140.367188 186.652344 140.367188 186.992188 140.367188 C 187.15625 139.382812 187.320312 138.40625 187.484375 137.394531 Z M 187.484375 137.394531 "/>
<path style=" stroke:none;fill-rule:nonzero;fill:rgb(64.313725%,52.941176%,25.490196%);fill-opacity:1;" d="M 148.300781 119.035156 C 148.144531 119.527344 147.976562 120.019531 147.808594 120.53125 C 146.828125 120.6875 145.84375 120.855469 144.832031 121.019531 C 144.832031 120.535156 144.832031 120.042969 144.832031 119.535156 C 146.320312 119.035156 146.320312 119.035156 148.300781 119.035156 Z M 148.300781 119.035156 "/>
<path style=" stroke:none;fill-rule:nonzero;fill:rgb(86.27451%,83.137255%,74.901961%);fill-opacity:1;" d="M 127.96875 131.4375 C 128.132812 131.769531 128.292969 132.09375 128.464844 132.433594 C 128.789062 132.433594 129.117188 132.433594 129.453125 132.433594 C 129.621094 133.417969 129.785156 134.394531 129.949219 135.40625 C 130.769531 135.40625 131.585938 135.40625 132.433594 135.40625 C 132.433594 135.570312 132.433594 135.738281 132.433594 135.902344 C 131.039062 136.058594 131.039062 136.058594 129.453125 135.902344 C 128.113281 134.292969 127.96875 133.566406 127.96875 131.4375 Z M 127.96875 131.4375 "/>
<path style=" stroke:none;fill-rule:nonzero;fill:rgb(64.705882%,59.607843%,38.039216%);fill-opacity:1;" d="M 72.914062 147.808594 C 74.058594 147.972656 75.199219 148.136719 76.382812 148.300781 C 75.054688 149.636719 73.714844 149.824219 71.917969 150.285156 C 72.246094 149.46875 72.578125 148.652344 72.914062 147.808594 Z M 72.914062 147.808594 "/>
<path style=" stroke:none;fill-rule:nonzero;fill:rgb(52.156863%,45.490196%,19.607843%);fill-opacity:1;" d="M 90.765625 142.351562 C 91.09375 142.351562 91.425781 142.351562 91.761719 142.351562 C 91.761719 142.675781 91.761719 143.011719 91.761719 143.347656 C 93.230469 143.59375 93.230469 143.59375 94.734375 143.835938 C 94.734375 144.003906 94.734375 144.171875 94.734375 144.335938 C 93.097656 144.335938 91.464844 144.335938 89.777344 144.335938 C 89.777344 144.007812 89.777344 143.683594 89.777344 143.347656 C 90.105469 143.347656 90.429688 143.347656 90.765625 143.347656 C 90.765625 143.011719 90.765625 142.6875 90.765625 142.351562 Z M 90.765625 142.351562 "/>
<path style=" stroke:none;fill-rule:nonzero;fill:rgb(94.117647%,94.117647%,94.117647%);fill-opacity:1;" d="M 101.679688 111.101562 C 102.007812 111.429688 102.332031 111.761719 102.667969 112.097656 C 101.527344 113.40625 100.382812 114.71875 99.199219 116.066406 C 98.875 115.898438 98.546875 115.738281 98.207031 115.566406 C 98.414062 115.328125 98.628906 115.089844 98.839844 114.84375 C 99.113281 114.53125 99.382812 114.21875 99.660156 113.898438 C 99.9375 113.582031 100.203125 113.269531 100.484375 112.953125 C 101.214844 112.113281 101.214844 112.113281 101.679688 111.101562 Z M 101.679688 111.101562 "/>
<path style=" stroke:none;fill-rule:nonzero;fill:rgb(57.647059%,51.372549%,26.27451%);fill-opacity:1;" d="M 69.933594 148.800781 C 70.261719 148.800781 70.59375 148.800781 70.929688 148.800781 C 70.929688 149.125 70.929688 149.453125 70.929688 149.792969 C 71.257812 149.953125 71.582031 150.121094 71.917969 150.285156 C 70.433594 151.28125 70.433594 151.28125 68.945312 151.28125 C 68.945312 150.789062 68.945312 150.296875 68.945312 149.792969 C 69.273438 149.792969 69.597656 149.792969 69.933594 149.792969 C 69.933594 149.460938 69.933594 149.136719 69.933594 148.800781 Z M 69.933594 148.800781 "/>
<path style=" stroke:none;fill-rule:nonzero;fill:rgb(64.313725%,60.392157%,37.647059%);fill-opacity:1;" d="M 77.871094 146.320312 C 79.019531 146.320312 80.164062 146.320312 81.347656 146.320312 C 79.710938 147.40625 78.265625 147.808594 76.382812 148.300781 C 76.382812 147.976562 76.382812 147.652344 76.382812 147.3125 C 76.875 147.3125 77.367188 147.3125 77.871094 147.3125 C 77.871094 146.984375 77.871094 146.65625 77.871094 146.320312 Z M 77.871094 146.320312 "/>
<path style=" stroke:none;fill-rule:nonzero;fill:rgb(55.686275%,48.235294%,21.176471%);fill-opacity:1;" d="M 114.082031 135.40625 C 115.226562 135.570312 116.371094 135.738281 117.550781 135.902344 C 117.550781 136.394531 117.550781 136.886719 117.550781 137.394531 C 116.566406 137.394531 115.589844 137.394531 114.578125 137.394531 C 114.414062 136.738281 114.246094 136.085938 114.082031 135.40625 Z M 114.082031 135.40625 "/>
<path style=" stroke:none;fill-rule:nonzero;fill:rgb(85.882353%,80.392157%,70.196078%);fill-opacity:1;" d="M 138.382812 133.917969 C 138.710938 133.917969 139.039062 133.917969 139.378906 133.917969 C 139.378906 134.246094 139.378906 134.578125 139.378906 134.914062 C 140.355469 134.914062 141.339844 134.914062 142.351562 134.914062 C 142.027344 135.566406 141.699219 136.222656 141.363281 136.898438 C 140.058594 136.375 139.476562 136.082031 138.753906 134.851562 C 138.632812 134.539062 138.507812 134.238281 138.382812 133.917969 Z M 138.382812 133.917969 "/>
<path style=" stroke:none;fill-rule:nonzero;fill:rgb(93.333333%,93.333333%,93.333333%);fill-opacity:1;" d="M 55.054688 133.917969 C 55.546875 133.917969 56.039062 133.917969 56.546875 133.917969 C 56.546875 134.246094 56.546875 134.578125 56.546875 134.914062 C 56.871094 135.074219 57.199219 135.238281 57.535156 135.40625 C 55.679688 136.898438 55.679688 136.898438 54.5625 136.898438 C 54.722656 135.914062 54.886719 134.929688 55.054688 133.917969 Z M 55.054688 133.917969 "/>
<path style=" stroke:none;fill-rule:nonzero;fill:rgb(96.470588%,96.470588%,96.470588%);fill-opacity:1;" d="M 86.800781 94.238281 C 87.941406 94.238281 89.09375 94.238281 90.269531 94.238281 C 89.777344 94.402344 89.292969 94.570312 88.785156 94.734375 C 88.949219 95.226562 89.109375 95.71875 89.28125 96.222656 C 88.464844 96.222656 87.644531 96.222656 86.800781 96.222656 C 86.800781 95.570312 86.800781 94.914062 86.800781 94.238281 Z M 86.800781 94.238281 "/>
</g>
</svg>
