<?xml version="1.0"?>
<svg width="288" height="288" xmlns="http://www.w3.org/2000/svg" xmlns:svg="http://www.w3.org/2000/svg" xmlns:xlink="http://www.w3.org/1999/xlink" version="1.1">
 <!-- Created with SVG-edit - https://github.com/SVG-Edit/svgedit-->
 <defs>
  <symbol height="1080" id="svg_1" version="1.1" width="1080" xmlns="http://www.w3.org/2000/svg">
   <path d="m0,0c356.4,0 712.8,0 1080,0c0,356.4 0,712.8 0,1080c-356.4,0 -712.8,0 -1080,0c0,-356.4 0,-712.8 0,-1080z" fill="#222731" transform="translate(0,0)"/>
   <path d="m0,0c4.71,0.71 4.71,0.71 6,2c0.48,6 -0.88,10.85 -2.81,16.5c-0.31,0.9 -0.61,1.8 -0.92,2.73c-4.42,12.6 -10.2,24.87 -16.96,36.38c-2.44,4.36 -3.66,8.58 -4.69,13.45c-0.19,0.87 -0.38,1.73 -0.58,2.62c-0.7,3.1 -1.37,6.21 -2.04,9.32c-0.62,2.83 -1.25,5.66 -1.87,8.48c-1.73,7.84 -3.43,15.68 -5.13,23.52c0.4,-0.67 0.79,-1.35 1.2,-2.04c0.53,-0.9 1.05,-1.79 1.6,-2.71c0.52,-0.88 1.04,-1.76 1.57,-2.67c2.49,-3.95 5.36,-8.44 9.63,-10.58c3,-0.19 3,-0.19 6,0c2,2 2,2 2.31,5.19c-0.62,7.56 -4.35,13.23 -9.31,18.81c-1.31,1.03 -2.63,2.04 -4,3c0.33,1.32 0.66,2.64 1,4c12.07,-0.23 21.44,-9.17 29.5,-17.43c0.5,-0.52 0.99,-1.04 1.5,-1.57c0.5,-0.51 0.99,-1.03 1.5,-1.56c9.64,-10.38 12.17,-21.78 14.87,-35.4c0.91,-4.4 2.07,-8.71 3.26,-13.04c1.18,-4.39 2.34,-8.76 3.29,-13.21c3.22,-15.14 7.83,-34.54 19.08,-45.79c2.56,-0.19 2.56,-0.19 5,0c1.67,1.67 1.23,3.63 1.28,5.93c-0.06,6.01 -1.5,10.74 -3.78,16.26c-0.36,0.9 -0.72,1.81 -1.09,2.74c-3.35,8.27 -7.3,16.17 -11.41,24.07c-9.4,18.12 -12.9,37.66 -17.23,57.46c-0.17,0.77 -0.34,1.53 -0.51,2.32c-0.32,1.44 -0.63,2.87 -0.94,4.31c-1.02,4.66 -2.15,9.29 -3.32,13.91c0.76,-1.39 0.76,-1.39 1.54,-2.82c8.67,-15.65 8.67,-15.65 15.46,-20.18c2.94,-0.44 2.94,-0.44 6,0c3.86,3.78 4.62,6.9 5.19,12.19c0.37,4.56 0.37,4.56 1.81,8.81c6.58,-0.85 10,-5.01 14,-10c4.09,-5.6 7.92,-11.37 11.72,-17.17c1.28,-1.83 1.28,-1.83 3.28,-3.83c2.13,0.38 2.13,0.38 4,1c-0.85,9.32 -0.85,9.32 -1.56,12.56c-0.87,4.84 -1,9.77 0.56,14.44c10.04,-1.33 16.82,-10.76 22.87,-18.17c2.15,-2.76 2.15,-2.76 3.79,-5.63c1.34,-2.2 1.34,-2.2 3.34,-3.2c0.73,-2.53 1.33,-5.01 1.88,-7.57c0.18,-0.79 0.35,-1.57 0.53,-2.38c0.38,-1.69 0.76,-3.39 1.13,-5.08c0.98,-4.47 2,-8.93 3.02,-13.39c0.2,-0.9 0.41,-1.79 0.62,-2.72c12.2,-53.24 12.2,-53.24 22.82,-63.86c2.5,-0.25 2.5,-0.25 5,0c2,2 2,2 2.31,5.5c-0.5,14.85 -9.74,30.49 -17.25,42.93c-4.67,7.89 -6.66,16.52 -8.75,25.38c-0.25,1.08 -0.51,2.15 -0.77,3.26c-0.85,3.64 -1.7,7.28 -2.54,10.93c-0.15,0.65 -0.3,1.29 -0.45,1.96c-4.46,19.35 -8.57,38.76 -12.49,58.23c-0.19,0.97 -0.39,1.95 -0.6,2.96c-0.56,2.79 -1.12,5.59 -1.67,8.39c-0.17,0.83 -0.34,1.65 -0.51,2.5c-2.11,9.33 -2.11,9.33 -1.65,18.71c0.37,2.25 0.37,2.25 -0.82,5.06c-0.6,0.72 -1.19,1.45 -1.81,2.19c-1.32,0 -2.64,0 -4,0c-2.61,-5.23 -0.76,-12.46 0.29,-17.97c0.13,-0.75 0.27,-1.49 0.41,-2.26c0.45,-2.43 0.9,-4.85 1.36,-7.27c0.32,-1.68 0.63,-3.37 0.94,-5.05c2.99,-15.89 6.41,-31.68 10,-47.45c-0.74,0.82 -1.49,1.65 -2.25,2.5c-0.99,1.09 -1.99,2.18 -2.98,3.27c-0.48,0.55 -0.97,1.09 -1.48,1.65c-5.52,6.07 -11.44,11.72 -19.85,12.96c-3.27,-0.51 -4.37,-1.87 -6.44,-4.38c-1.28,-2.57 -1.33,-4.77 -1.56,-7.62c-0.13,-1.51 -0.13,-1.51 -0.26,-3.04c-0.06,-0.77 -0.12,-1.55 -0.18,-2.34c-0.64,0.87 -1.28,1.74 -1.94,2.63c-10.54,14.11 -10.54,14.11 -17.06,17.37c-3.37,0.38 -3.37,0.38 -7,0c-6.28,-5.6 -6.4,-14.13 -7,-22c-3.62,1.02 -3.62,1.02 -5.95,3.75c-0.34,0.74 -0.69,1.48 -1.05,2.25c-1.16,1.77 -2.33,3.54 -3.5,5.31c-6.66,10.46 -11.89,22.52 -15.66,34.32c-0.28,0.78 -0.55,1.57 -0.84,2.37c-2.06,0.94 -2.06,0.94 -4,1c-1.53,-1.53 -1.16,-2.88 -1.17,-5.01c0.06,-4.8 0.84,-9.22 1.92,-13.89c0.27,-1.21 0.27,-1.21 0.54,-2.44c0.56,-2.53 1.13,-5.07 1.71,-7.6c0.57,-2.56 1.14,-5.11 1.71,-7.67c0.35,-1.59 0.71,-3.17 1.07,-4.75c0.9,-3.78 0.9,-3.78 1.22,-7.64c-0.38,0.46 -0.76,0.92 -1.14,1.4c-8.61,10.19 -19.02,21.14 -32.51,24.2c-4.29,0.27 -5.87,-0.21 -9.29,-2.97c-0.68,-0.87 -1.36,-1.74 -2.06,-2.63c-0.66,-0.66 -1.32,-1.32 -2,-2c-1.3,3.52 -2.59,7.04 -3.88,10.56c-0.36,0.99 -0.72,1.98 -1.1,3c-2.27,6.22 -2.27,6.22 -4.15,12.57c-0.87,2.87 -0.87,2.87 -3,4.31c-0.61,0.18 -1.23,0.37 -1.87,0.56c-1,-1 -1,-1 -1.18,-4.95c0.06,-5.12 0.96,-9.86 2.09,-14.83c0.2,-0.92 0.4,-1.84 0.6,-2.79c0.66,-2.98 1.32,-5.95 1.99,-8.93c0.46,-2.07 0.91,-4.13 1.37,-6.2c3,-13.57 6.16,-27.1 9.53,-40.58c1.84,-7.4 3.46,-14.79 4.89,-22.28c1.22,-5.91 2.98,-11.66 4.71,-17.44c0.39,-1.39 0.77,-2.78 1.16,-4.16c7.34,-26.34 7.34,-26.34 16.84,-35.84z" fill="#F3F3F3" transform="translate(513,389)"/>
   <path d="m0,0c1.55,3.11 0.38,5.43 -0.41,8.77c-0.33,1.44 -0.66,2.89 -0.99,4.33c-0.27,1.15 -0.27,1.15 -0.54,2.33c-3.35,14.38 -6.36,28.8 -9.06,43.32c-0.15,0.82 -0.31,1.64 -0.46,2.49c-0.86,4.58 -1.7,9.17 -2.54,13.76c-8.97,-0.65 -17.93,-1.45 -26.88,-2.37c-1.27,-0.14 -2.54,-0.27 -3.85,-0.4c-7.44,-0.79 -14.86,-1.66 -22.27,-2.67c-9.59,-1.29 -19.2,-2.41 -28.82,-3.47c-1.64,-0.18 -3.29,-0.37 -4.93,-0.55c-5.08,-0.57 -10.16,-1.08 -15.25,-1.54c-0.93,-0.1 -1.86,-0.2 -2.82,-0.3c-7.78,-0.48 -14.45,2.72 -21.49,5.68c-1.26,0.51 -2.52,1.02 -3.79,1.53c-2.31,0.95 -4.62,1.89 -6.92,2.85c-5.87,2.44 -9.6,3.85 -15.98,3.24c-2.82,-1.66 -3.69,-2.98 -4.63,-6.09c-0.75,-4.08 -0.72,-6.26 1.25,-9.97c7.53,-4.32 17.02,-1.91 25.32,-0.94c2.31,0.26 4.63,0.51 6.95,0.76c1.84,0.21 3.69,0.46 5.53,0.72c11.7,0.97 21.86,-4.67 32.26,-9.45c2.32,-1.03 2.32,-1.03 5.32,-2.03c0.07,-0.76 0.14,-1.52 0.21,-2.31c1.12,-5.22 3.21,-9.88 5.35,-14.75c0.45,-1.03 0.9,-2.05 1.36,-3.1c4.39,-9.84 8.97,-19.49 17.08,-26.84c0.99,-0.33 1.98,-0.66 3,-1c0.16,0.93 0.16,0.93 0.33,1.87c1.57,10.38 1.57,10.38 6.67,19.13c4.31,0.69 7.18,0.27 10.75,-2.12c5.2,-4.21 9.04,-9.72 13.03,-15.03c0.73,-0.94 1.46,-1.88 2.22,-2.85c0.33,0 0.66,0 1,0c0.06,0.82 0.12,1.64 0.18,2.48c0.09,1.08 0.17,2.16 0.26,3.27c0.08,1.07 0.16,2.13 0.24,3.23c0.26,2.46 0.64,4.66 1.32,7.02c5.52,1.18 8.91,1.31 13.86,-1.5c6.96,-4.87 12.82,-10.92 18.14,-17.5z" fill="#8D7336" transform="translate(624,496)"/>
   <path d="m0,0c2.25,0.94 2.25,0.94 3.25,2.94c2.41,19.04 -5.3,39.64 -9.97,57.93c-2.6,10.17 -4.94,20.38 -7.13,30.65c-0.22,1.04 -0.44,2.08 -0.67,3.15c-0.29,1.35 -0.29,1.35 -0.58,2.73c-0.67,2.63 -1.59,5.04 -2.65,7.54c0.7,-0.01 1.4,-0.02 2.12,-0.03c3.19,-0.05 6.38,-0.07 9.57,-0.1c1.1,-0.01 2.2,-0.03 3.34,-0.05c1.07,0 2.13,-0.01 3.23,-0.02c1.47,-0.01 1.47,-0.01 2.97,-0.03c2.94,0.24 5.1,1 7.77,2.23c-0.33,1.32 -0.66,2.64 -1,4c-3.15,0.03 -6.29,0.04 -9.44,0.06c-0.88,0.01 -1.75,0.02 -2.66,0.03c-1.31,0 -1.31,0 -2.65,0.01c-0.79,0 -1.58,0.01 -2.39,0.01c-3.98,-0.16 -7.91,-0.64 -11.86,-1.11c-2.71,12.13 -5.37,24.27 -7.98,36.42c-0.58,2.71 -1.17,5.41 -1.75,8.12c-4.57,19.82 -4.57,19.82 -6.96,39.96c-0.06,1.25 -0.13,2.49 -0.2,3.78c-0.03,0.9 -0.07,1.79 -0.11,2.72c1.32,0.33 2.64,0.66 4,1c-0.5,4.4 -2.09,6.71 -5,10c-1.88,-0.31 -1.88,-0.31 -4,-1c-5.51,-8.27 -1.27,-21.91 0.5,-31.06c0.27,-1.43 0.53,-2.85 0.8,-4.28c4.18,-22.04 9.17,-43.93 14.7,-65.66c-0.88,0.01 -1.76,0.02 -2.67,0.03c-10.14,0.1 -20.21,-0.43 -30.33,-1.03c-0.21,0.76 -0.42,1.52 -0.63,2.3c-1.94,5.23 -4.58,10 -7.25,14.89c-0.86,1.58 -0.86,1.58 -1.74,3.2c-21.24,38.59 -21.24,38.59 -31.38,41.61c-3.61,0.67 -5.83,0.67 -9.05,-1.19c-9.01,-7.06 -11.87,-17.98 -13.95,-28.81c-0.43,-4.26 -0.52,-8.47 -0.5,-12.75c0,-1.13 0.01,-2.27 0.02,-3.43c0.28,-13.89 3.52,-26.55 13.39,-36.81c6.61,-6.16 12.6,-8.56 21.53,-8.39c1.12,0.01 1.12,0.01 2.26,0.02c5.32,0.13 9.51,0.91 14.3,3.36c0,1.32 0,2.64 0,4c-5.75,0.12 -5.75,0.12 -8,-1c-10.38,-0.71 -18.39,-0.45 -26.55,6.54c-9.85,9.9 -10.83,25.41 -10.82,38.52c0.26,10.89 2.54,23.16 9.37,31.94c2.78,2.22 2.78,2.22 5.75,2.12c7.74,-2.68 12.31,-11.92 16.37,-18.62c0.82,-1.34 0.82,-1.34 1.66,-2.7c6.86,-11.32 13.3,-22.96 19.22,-34.8c-0.74,0.01 -1.49,0.02 -2.25,0.03c-8.01,0.07 -16,-0.11 -24,-0.41c-1.54,-0.04 -1.54,-0.04 -3.1,-0.09c-0.96,-0.04 -1.93,-0.08 -2.92,-0.12c-1.29,-0.05 -1.29,-0.05 -2.61,-0.09c-2.12,-0.32 -2.12,-0.32 -4.12,-2.32c0.33,-1.32 0.66,-2.64 1,-4c13.86,0.33 27.72,0.66 42,1c0.66,-1.65 1.32,-3.3 2,-5c0.62,-1.32 1.25,-2.64 1.9,-3.94c0.37,-0.74 0.74,-1.48 1.12,-2.24c0.59,-1.18 0.59,-1.18 1.2,-2.39c0.42,-0.84 0.83,-1.67 1.26,-2.54c0.89,-1.77 1.78,-3.54 2.67,-5.32c1.32,-2.64 2.64,-5.28 3.96,-7.93c5.46,-10.93 11.06,-21.78 16.79,-32.57c1,-1.88 1.99,-3.76 2.99,-5.65c1.59,-3 3.19,-5.99 4.8,-8.98c0.77,-1.47 0.77,-1.47 1.56,-2.96c12.68,-23.58 12.68,-23.58 19.5,-23.42z" fill="#F1F1F2" transform="translate(462.75,381.0625)"/>
   <path d="m0,0c10.98,3.33 18.16,9.83 23.87,19.57c3.55,7.64 3.36,18.25 1.07,26.24c-3.48,8.71 -9.79,14.8 -17.94,19.19c-0.7,0.38 -1.39,0.76 -2.11,1.15c-4.46,1.31 -8.84,1.1 -13.45,1.04c-1.42,0 -1.42,0 -2.87,0c-9,-0.06 -9,-0.06 -11.57,-1.19c-2.23,-3.8 -2.1,-6.6 -1.4,-10.86c0.2,-1.23 0.4,-2.47 0.61,-3.74c0.26,-1.47 0.52,-2.93 0.79,-4.4c0.15,-0.85 0.31,-1.7 0.47,-2.57c1.07,-5.88 2.2,-11.74 3.36,-17.6c0.61,-3.11 1.21,-6.23 1.8,-9.34c0.39,-1.98 0.79,-3.96 1.18,-5.94c0.17,-0.93 0.35,-1.86 0.53,-2.82c0.17,-0.86 0.35,-1.71 0.52,-2.59c0.15,-0.76 0.3,-1.51 0.45,-2.29c2.16,-5.8 9.75,-4.46 14.69,-3.85z" fill="#977732" transform="translate(641,506)"/>
   <path d="m0,0c1.3,4.35 0.57,8.16 -0.17,12.55c-0.14,0.84 -0.27,1.68 -0.42,2.55c-1.54,9.09 -3.59,18.05 -5.72,27.03c-0.4,1.7 -0.8,3.41 -1.2,5.11c-0.98,4.17 -1.96,8.33 -2.95,12.49c-0.5,2.11 -1,4.22 -1.49,6.33c-0.81,3.42 -1.61,6.83 -2.43,10.25c-0.22,0.96 -0.45,1.92 -0.68,2.9c-0.21,0.9 -0.43,1.79 -0.65,2.72c-0.18,0.74 -0.36,1.49 -0.54,2.26c-1.15,4.3 -2.47,8.55 -3.75,12.81c-10.23,0 -20.46,0 -31,0c0.8,-3.99 1.36,-6.06 3.2,-9.46c0.46,-0.87 0.92,-1.74 1.39,-2.63c0.51,-0.94 1.01,-1.88 1.53,-2.85c4.61,-8.67 9.07,-17.4 13.43,-26.2c23.96,-48.37 23.96,-48.37 31.45,-55.86z" fill="#252A34" transform="translate(460,388)"/>
   <path d="m0,0c0.11,0.62 0.22,1.23 0.33,1.87c1.57,10.38 1.57,10.38 6.67,19.13c4.31,0.69 7.18,0.27 10.75,-2.12c5.2,-4.21 9.04,-9.72 13.03,-15.03c1.1,-1.41 1.1,-1.41 2.22,-2.85c0.33,0 0.66,0 1,0c0.06,0.82 0.12,1.64 0.18,2.48c0.09,1.08 0.17,2.16 0.26,3.27c0.08,1.07 0.16,2.13 0.24,3.23c0.26,2.46 0.64,4.66 1.32,7.02c2.31,0.66 4.62,1.32 7,2c-2.68,2.68 -5.81,3.68 -9.27,5.05c-0.74,0.3 -1.48,0.6 -2.24,0.91c-2.43,0.97 -4.87,1.94 -7.3,2.92c-3.37,1.35 -6.74,2.7 -10.11,4.05c-0.85,0.34 -1.69,0.68 -2.57,1.03c-5.45,2.2 -10.89,4.43 -16.31,6.7c-0.67,0.28 -1.35,0.56 -2.04,0.85c-3.16,1.32 -6.31,2.65 -9.46,3.98c-1.11,0.47 -2.22,0.93 -3.36,1.41c-1.45,0.61 -1.45,0.61 -2.92,1.24c-2.42,0.86 -2.42,0.86 -5.42,0.86c18.23,-48 18.23,-48 28,-48z" fill="#252A33" transform="translate(556,498)"/>
   <path d="m0,0c1.39,0.15 2.77,0.29 4.16,0.43c3.34,0.35 6.68,0.71 10.03,1.07c-2.52,2.51 -4.83,3.25 -8.15,4.53c-0.91,0.36 -0.91,0.36 -1.84,0.72c-1.94,0.75 -3.88,1.5 -5.83,2.25c-1.29,0.5 -2.59,1.01 -3.89,1.51c-2.39,0.93 -4.79,1.86 -7.19,2.78c-1.96,0.77 -3.93,1.55 -5.88,2.35c-3.65,1.42 -6.31,1.23 -10.22,0.86c-2.83,-1.66 -3.69,-2.98 -4.64,-6.09c-0.74,-4.08 -0.71,-6.26 1.26,-9.97c8.79,-5.05 22.48,-1.49 32.19,-0.44z" fill="#796C3D" transform="translate(485.8125,556.5)"/>
   <path d="m0,0c1.55,3.1 0.58,5.61 -0.22,8.88c-0.78,2.12 -0.78,2.12 -2.84,3.93c-0.97,0.39 -1.94,0.79 -2.94,1.19c-0.75,0.36 -1.49,0.72 -2.26,1.09c-4.52,2.16 -4.52,2.16 -6.74,2.91c-0.66,-0.33 -1.32,-0.66 -2,-1c0.81,-0.72 1.62,-1.45 2.45,-2.2c1.08,-0.97 2.16,-1.95 3.24,-2.92c0.53,-0.48 1.06,-0.95 1.6,-1.44c3.59,-3.25 6.69,-6.66 9.71,-10.44z" fill="#31353D" transform="translate(624,496)"/>
   <path d="m0,0c0.81,2.31 1.18,3.53 0.29,5.86c-3.49,5.39 -7.6,9.77 -12.29,14.14c0,-5.84 4.04,-11.67 7.73,-16.05c1.38,-1.37 2.82,-2.67 4.27,-3.95z" fill="#363A43" transform="translate(500,491)"/>
   <path d="m0,0c1.17,3.51 0.82,4.12 -0.55,7.42c-0.35,0.86 -0.7,1.72 -1.06,2.61c-0.38,0.9 -0.75,1.8 -1.14,2.72c-0.36,0.88 -0.72,1.76 -1.09,2.67c-2.01,4.88 -4.07,9.74 -6.16,14.58c-1.4,-4.19 0.16,-7.09 1.62,-11.06c0.42,-1.14 0.42,-1.14 0.83,-2.3c2.12,-5.76 4.57,-11.27 7.55,-16.64z" fill="#464A53" transform="translate(567,397)"/>
   <path d="m0,0c1,2 1,2 -0.07,5.38c-0.53,1.4 -1.07,2.79 -1.62,4.18c-0.27,0.72 -0.55,1.44 -0.83,2.18c-2,5.16 -4.15,10.24 -6.48,15.26c-1.22,-3.47 -0.8,-5.3 0.58,-8.66c0.36,-0.88 0.71,-1.75 1.08,-2.65c0.38,-0.91 0.76,-1.82 1.15,-2.75c0.56,-1.37 0.56,-1.37 1.12,-2.76c1.5,-3.64 2.88,-6.9 5.07,-10.18z" fill="#454951" transform="translate(512,399)"/>
   <path d="m0,0c1.19,3.58 0.73,4.41 -0.58,7.85c-0.36,0.93 -0.71,1.87 -1.08,2.83c-0.38,0.97 -0.76,1.94 -1.15,2.95c-0.56,1.46 -0.56,1.46 -1.12,2.96c-2.81,7.28 -2.81,7.28 -5.07,8.41c1.05,-5.98 2.8,-11.38 5.06,-17c0.27,-0.67 0.54,-1.34 0.82,-2.03c1.98,-4.83 1.98,-4.83 3.12,-5.97z" fill="#434750" transform="translate(657,398)"/>
   <path d="m0,0c1.21,0.03 1.21,0.03 2.44,0.06c0.33,1.32 0.66,2.64 1,4c-3,2 -3,2 -5.69,1.63c-0.76,-0.21 -1.53,-0.41 -2.31,-0.63c1.12,-4.98 1.12,-4.98 4.56,-5.06z" fill="#ECEDEE" transform="translate(599.5625,467.9375)"/>
  </symbol>
 </defs>
 <g class="layer">
  <title>Layer 1</title>
  <use id="svg_2" transform="matrix(0.0888889 0 0 0.0888889 0 0)" x="22.5" xlink:href="#svg_1" y="22.5"/>
 </g>
</svg>